<?xml version="1.0" encoding="utf-8"?>
<svg xmlns="http://www.w3.org/2000/svg" xmlns:xlink="http://www.w3.org/1999/xlink" width="800" height="900" viewBox="0 0 3200 3600">
<defs>
  <clipPath id="clip030">
    <rect x="0" y="0" width="3200" height="3600"/>
  </clipPath>
</defs>
<path clip-path="url(#clip030)" d="
M0 3600 L3200 3600 L3200 0 L0 0  Z
  " fill="#ffffff" fill-rule="evenodd" fill-opacity="1"/>
<defs>
  <clipPath id="clip031">
    <rect x="720" y="360" width="2521" height="2521"/>
  </clipPath>
</defs>
<path clip-path="url(#clip030)" d="
M370.569 1529.74 L3152.76 1529.74 L3152.76 47.2441 L370.569 47.2441  Z
  " fill="#ffffff" fill-rule="evenodd" fill-opacity="1"/>
<defs>
  <clipPath id="clip032">
    <rect x="370" y="47" width="2783" height="1483"/>
  </clipPath>
</defs>
<polyline clip-path="url(#clip032)" style="stroke:#000000; stroke-linecap:butt; stroke-linejoin:round; stroke-width:2; stroke-opacity:0.1; fill:none" points="
  711.148,1529.74 711.148,47.2441 
  "/>
<polyline clip-path="url(#clip032)" style="stroke:#000000; stroke-linecap:butt; stroke-linejoin:round; stroke-width:2; stroke-opacity:0.1; fill:none" points="
  1236.41,1529.74 1236.41,47.2441 
  "/>
<polyline clip-path="url(#clip032)" style="stroke:#000000; stroke-linecap:butt; stroke-linejoin:round; stroke-width:2; stroke-opacity:0.1; fill:none" points="
  1761.66,1529.74 1761.66,47.2441 
  "/>
<polyline clip-path="url(#clip032)" style="stroke:#000000; stroke-linecap:butt; stroke-linejoin:round; stroke-width:2; stroke-opacity:0.1; fill:none" points="
  2286.92,1529.74 2286.92,47.2441 
  "/>
<polyline clip-path="url(#clip032)" style="stroke:#000000; stroke-linecap:butt; stroke-linejoin:round; stroke-width:2; stroke-opacity:0.1; fill:none" points="
  2812.18,1529.74 2812.18,47.2441 
  "/>
<polyline clip-path="url(#clip030)" style="stroke:#000000; stroke-linecap:butt; stroke-linejoin:round; stroke-width:4; stroke-opacity:1; fill:none" points="
  370.569,1529.74 3152.76,1529.74 
  "/>
<polyline clip-path="url(#clip030)" style="stroke:#000000; stroke-linecap:butt; stroke-linejoin:round; stroke-width:4; stroke-opacity:1; fill:none" points="
  711.148,1529.74 711.148,1510.84 
  "/>
<polyline clip-path="url(#clip030)" style="stroke:#000000; stroke-linecap:butt; stroke-linejoin:round; stroke-width:4; stroke-opacity:1; fill:none" points="
  1236.41,1529.74 1236.41,1510.84 
  "/>
<polyline clip-path="url(#clip030)" style="stroke:#000000; stroke-linecap:butt; stroke-linejoin:round; stroke-width:4; stroke-opacity:1; fill:none" points="
  1761.66,1529.74 1761.66,1510.84 
  "/>
<polyline clip-path="url(#clip030)" style="stroke:#000000; stroke-linecap:butt; stroke-linejoin:round; stroke-width:4; stroke-opacity:1; fill:none" points="
  2286.92,1529.74 2286.92,1510.84 
  "/>
<polyline clip-path="url(#clip030)" style="stroke:#000000; stroke-linecap:butt; stroke-linejoin:round; stroke-width:4; stroke-opacity:1; fill:none" points="
  2812.18,1529.74 2812.18,1510.84 
  "/>
<path clip-path="url(#clip030)" d="M616.024 1591.5 L653.119 1591.5 L653.119 1596.42 L616.024 1596.42 L616.024 1591.5 Z" fill="#000000" fill-rule="evenodd" fill-opacity="1" /><path clip-path="url(#clip030)" d="M681.794 1574.43 L667.037 1597.49 L681.794 1597.49 L681.794 1574.43 M680.26 1569.34 L687.61 1569.34 L687.61 1597.49 L693.773 1597.49 L693.773 1602.35 L687.61 1602.35 L687.61 1612.54 L681.794 1612.54 L681.794 1602.35 L662.291 1602.35 L662.291 1596.71 L680.26 1569.34 Z" fill="#000000" fill-rule="evenodd" fill-opacity="1" /><path clip-path="url(#clip030)" d="M715.937 1573.19 Q711.423 1573.19 709.137 1577.64 Q706.88 1582.07 706.88 1590.98 Q706.88 1599.87 709.137 1604.32 Q711.423 1608.75 715.937 1608.75 Q720.48 1608.75 722.737 1604.32 Q725.023 1599.87 725.023 1590.98 Q725.023 1582.07 722.737 1577.64 Q720.48 1573.19 715.937 1573.19 M715.937 1568.56 Q723.2 1568.56 727.019 1574.32 Q730.867 1580.05 730.867 1590.98 Q730.867 1601.89 727.019 1607.65 Q723.2 1613.38 715.937 1613.38 Q708.674 1613.38 704.826 1607.65 Q701.006 1601.89 701.006 1590.98 Q701.006 1580.05 704.826 1574.32 Q708.674 1568.56 715.937 1568.56 Z" fill="#000000" fill-rule="evenodd" fill-opacity="1" /><path clip-path="url(#clip030)" d="M753.639 1573.19 Q749.125 1573.19 746.84 1577.64 Q744.583 1582.07 744.583 1590.98 Q744.583 1599.87 746.84 1604.32 Q749.125 1608.75 753.639 1608.75 Q758.182 1608.75 760.439 1604.32 Q762.725 1599.87 762.725 1590.98 Q762.725 1582.07 760.439 1577.64 Q758.182 1573.19 753.639 1573.19 M753.639 1568.56 Q760.902 1568.56 764.721 1574.32 Q768.57 1580.05 768.57 1590.98 Q768.57 1601.89 764.721 1607.65 Q760.902 1613.38 753.639 1613.38 Q746.377 1613.38 742.528 1607.65 Q738.709 1601.89 738.709 1590.98 Q738.709 1580.05 742.528 1574.32 Q746.377 1568.56 753.639 1568.56 Z" fill="#000000" fill-rule="evenodd" fill-opacity="1" /><path clip-path="url(#clip030)" d="M791.342 1573.19 Q786.828 1573.19 784.542 1577.64 Q782.285 1582.07 782.285 1590.98 Q782.285 1599.87 784.542 1604.32 Q786.828 1608.75 791.342 1608.75 Q795.884 1608.75 798.141 1604.32 Q800.427 1599.87 800.427 1590.98 Q800.427 1582.07 798.141 1577.64 Q795.884 1573.19 791.342 1573.19 M791.342 1568.56 Q798.604 1568.56 802.424 1574.32 Q806.272 1580.05 806.272 1590.98 Q806.272 1601.89 802.424 1607.65 Q798.604 1613.38 791.342 1613.38 Q784.079 1613.38 780.231 1607.65 Q776.411 1601.89 776.411 1590.98 Q776.411 1580.05 780.231 1574.32 Q784.079 1568.56 791.342 1568.56 Z" fill="#000000" fill-rule="evenodd" fill-opacity="1" /><path clip-path="url(#clip030)" d="M1141.28 1591.5 L1178.38 1591.5 L1178.38 1596.42 L1141.28 1596.42 L1141.28 1591.5 Z" fill="#000000" fill-rule="evenodd" fill-opacity="1" /><path clip-path="url(#clip030)" d="M1196.03 1607.62 L1216.43 1607.62 L1216.43 1612.54 L1189 1612.54 L1189 1607.62 Q1192.32 1604.18 1198.05 1598.39 Q1203.81 1592.57 1205.29 1590.9 Q1208.09 1587.74 1209.19 1585.57 Q1210.32 1583.37 1210.32 1581.26 Q1210.32 1577.82 1207.89 1575.65 Q1205.49 1573.48 1201.61 1573.48 Q1198.86 1573.48 1195.8 1574.43 Q1192.76 1575.39 1189.28 1577.33 L1189.28 1571.42 Q1192.81 1570.01 1195.88 1569.28 Q1198.95 1568.56 1201.5 1568.56 Q1208.21 1568.56 1212.2 1571.92 Q1216.19 1575.27 1216.19 1580.88 Q1216.19 1583.55 1215.18 1585.95 Q1214.2 1588.32 1211.56 1591.56 Q1210.84 1592.4 1206.96 1596.42 Q1203.09 1600.42 1196.03 1607.62 Z" fill="#000000" fill-rule="evenodd" fill-opacity="1" /><path clip-path="url(#clip030)" d="M1241.19 1573.19 Q1236.68 1573.19 1234.39 1577.64 Q1232.14 1582.07 1232.14 1590.98 Q1232.14 1599.87 1234.39 1604.32 Q1236.68 1608.75 1241.19 1608.75 Q1245.74 1608.75 1247.99 1604.32 Q1250.28 1599.87 1250.28 1590.98 Q1250.28 1582.07 1247.99 1577.64 Q1245.74 1573.19 1241.19 1573.19 M1241.19 1568.56 Q1248.46 1568.56 1252.28 1574.32 Q1256.12 1580.05 1256.12 1590.98 Q1256.12 1601.89 1252.28 1607.65 Q1248.46 1613.38 1241.19 1613.38 Q1233.93 1613.38 1230.08 1607.65 Q1226.26 1601.89 1226.26 1590.98 Q1226.26 1580.05 1230.08 1574.32 Q1233.93 1568.56 1241.19 1568.56 Z" fill="#000000" fill-rule="evenodd" fill-opacity="1" /><path clip-path="url(#clip030)" d="M1278.9 1573.19 Q1274.38 1573.19 1272.1 1577.64 Q1269.84 1582.07 1269.84 1590.98 Q1269.84 1599.87 1272.1 1604.32 Q1274.38 1608.75 1278.9 1608.75 Q1283.44 1608.75 1285.7 1604.32 Q1287.98 1599.87 1287.98 1590.98 Q1287.98 1582.07 1285.7 1577.64 Q1283.44 1573.19 1278.9 1573.19 M1278.9 1568.56 Q1286.16 1568.56 1289.98 1574.32 Q1293.83 1580.05 1293.83 1590.98 Q1293.83 1601.89 1289.98 1607.65 Q1286.16 1613.38 1278.9 1613.38 Q1271.63 1613.38 1267.79 1607.65 Q1263.97 1601.89 1263.97 1590.98 Q1263.97 1580.05 1267.79 1574.32 Q1271.63 1568.56 1278.9 1568.56 Z" fill="#000000" fill-rule="evenodd" fill-opacity="1" /><path clip-path="url(#clip030)" d="M1316.6 1573.19 Q1312.08 1573.19 1309.8 1577.64 Q1307.54 1582.07 1307.54 1590.98 Q1307.54 1599.87 1309.8 1604.32 Q1312.08 1608.75 1316.6 1608.75 Q1321.14 1608.75 1323.4 1604.32 Q1325.68 1599.87 1325.68 1590.98 Q1325.68 1582.07 1323.4 1577.64 Q1321.14 1573.19 1316.6 1573.19 M1316.6 1568.56 Q1323.86 1568.56 1327.68 1574.32 Q1331.53 1580.05 1331.53 1590.98 Q1331.53 1601.89 1327.68 1607.65 Q1323.86 1613.38 1316.6 1613.38 Q1309.34 1613.38 1305.49 1607.65 Q1301.67 1601.89 1301.67 1590.98 Q1301.67 1580.05 1305.49 1574.32 Q1309.34 1568.56 1316.6 1568.56 Z" fill="#000000" fill-rule="evenodd" fill-opacity="1" /><path clip-path="url(#clip030)" d="M1761.66 1573.19 Q1757.15 1573.19 1754.86 1577.64 Q1752.61 1582.07 1752.61 1590.98 Q1752.61 1599.87 1754.86 1604.32 Q1757.15 1608.75 1761.66 1608.75 Q1766.21 1608.75 1768.46 1604.32 Q1770.75 1599.87 1770.75 1590.98 Q1770.75 1582.07 1768.46 1577.64 Q1766.21 1573.19 1761.66 1573.19 M1761.66 1568.56 Q1768.93 1568.56 1772.74 1574.32 Q1776.59 1580.05 1776.59 1590.98 Q1776.59 1601.89 1772.74 1607.65 Q1768.93 1613.38 1761.66 1613.38 Q1754.4 1613.38 1750.55 1607.65 Q1746.73 1601.89 1746.73 1590.98 Q1746.73 1580.05 1750.55 1574.32 Q1754.4 1568.56 1761.66 1568.56 Z" fill="#000000" fill-rule="evenodd" fill-opacity="1" /><path clip-path="url(#clip030)" d="M2222.68 1607.62 L2243.08 1607.62 L2243.08 1612.54 L2215.65 1612.54 L2215.65 1607.62 Q2218.98 1604.18 2224.71 1598.39 Q2230.47 1592.57 2231.94 1590.9 Q2234.75 1587.74 2235.85 1585.57 Q2236.98 1583.37 2236.98 1581.26 Q2236.98 1577.82 2234.55 1575.65 Q2232.15 1573.48 2228.27 1573.48 Q2225.52 1573.48 2222.45 1574.43 Q2219.41 1575.39 2215.94 1577.33 L2215.94 1571.42 Q2219.47 1570.01 2222.54 1569.28 Q2225.61 1568.56 2228.15 1568.56 Q2234.87 1568.56 2238.86 1571.92 Q2242.85 1575.27 2242.85 1580.88 Q2242.85 1583.55 2241.84 1585.95 Q2240.86 1588.32 2238.22 1591.56 Q2237.5 1592.4 2233.62 1596.42 Q2229.74 1600.42 2222.68 1607.62 Z" fill="#000000" fill-rule="evenodd" fill-opacity="1" /><path clip-path="url(#clip030)" d="M2267.85 1573.19 Q2263.34 1573.19 2261.05 1577.64 Q2258.79 1582.07 2258.79 1590.98 Q2258.79 1599.87 2261.05 1604.32 Q2263.34 1608.75 2267.85 1608.75 Q2272.39 1608.75 2274.65 1604.32 Q2276.94 1599.87 2276.94 1590.98 Q2276.94 1582.07 2274.65 1577.64 Q2272.39 1573.19 2267.85 1573.19 M2267.85 1568.56 Q2275.11 1568.56 2278.93 1574.32 Q2282.78 1580.05 2282.78 1590.98 Q2282.78 1601.89 2278.93 1607.65 Q2275.11 1613.38 2267.85 1613.38 Q2260.59 1613.38 2256.74 1607.65 Q2252.92 1601.89 2252.92 1590.98 Q2252.92 1580.05 2256.74 1574.32 Q2260.59 1568.56 2267.85 1568.56 Z" fill="#000000" fill-rule="evenodd" fill-opacity="1" /><path clip-path="url(#clip030)" d="M2305.55 1573.19 Q2301.04 1573.19 2298.75 1577.64 Q2296.5 1582.07 2296.5 1590.98 Q2296.5 1599.87 2298.75 1604.32 Q2301.04 1608.75 2305.55 1608.75 Q2310.1 1608.75 2312.35 1604.32 Q2314.64 1599.87 2314.64 1590.98 Q2314.64 1582.07 2312.35 1577.64 Q2310.1 1573.19 2305.55 1573.19 M2305.55 1568.56 Q2312.82 1568.56 2316.64 1574.32 Q2320.48 1580.05 2320.48 1590.98 Q2320.48 1601.89 2316.64 1607.65 Q2312.82 1613.38 2305.55 1613.38 Q2298.29 1613.38 2294.44 1607.65 Q2290.62 1601.89 2290.62 1590.98 Q2290.62 1580.05 2294.44 1574.32 Q2298.29 1568.56 2305.55 1568.56 Z" fill="#000000" fill-rule="evenodd" fill-opacity="1" /><path clip-path="url(#clip030)" d="M2343.26 1573.19 Q2338.74 1573.19 2336.46 1577.64 Q2334.2 1582.07 2334.2 1590.98 Q2334.2 1599.87 2336.46 1604.32 Q2338.74 1608.75 2343.26 1608.75 Q2347.8 1608.75 2350.06 1604.32 Q2352.34 1599.87 2352.34 1590.98 Q2352.34 1582.07 2350.06 1577.64 Q2347.8 1573.19 2343.26 1573.19 M2343.26 1568.56 Q2350.52 1568.56 2354.34 1574.32 Q2358.19 1580.05 2358.19 1590.98 Q2358.19 1601.89 2354.34 1607.65 Q2350.52 1613.38 2343.26 1613.38 Q2335.99 1613.38 2332.15 1607.65 Q2328.33 1601.89 2328.33 1590.98 Q2328.33 1580.05 2332.15 1574.32 Q2335.99 1568.56 2343.26 1568.56 Z" fill="#000000" fill-rule="evenodd" fill-opacity="1" /><path clip-path="url(#clip030)" d="M2759.69 1574.43 L2744.93 1597.49 L2759.69 1597.49 L2759.69 1574.43 M2758.16 1569.34 L2765.5 1569.34 L2765.5 1597.49 L2771.67 1597.49 L2771.67 1602.35 L2765.5 1602.35 L2765.5 1612.54 L2759.69 1612.54 L2759.69 1602.35 L2740.19 1602.35 L2740.19 1596.71 L2758.16 1569.34 Z" fill="#000000" fill-rule="evenodd" fill-opacity="1" /><path clip-path="url(#clip030)" d="M2793.83 1573.19 Q2789.32 1573.19 2787.03 1577.64 Q2784.78 1582.07 2784.78 1590.98 Q2784.78 1599.87 2787.03 1604.32 Q2789.32 1608.75 2793.83 1608.75 Q2798.38 1608.75 2800.63 1604.32 Q2802.92 1599.87 2802.92 1590.98 Q2802.92 1582.07 2800.63 1577.64 Q2798.38 1573.19 2793.83 1573.19 M2793.83 1568.56 Q2801.09 1568.56 2804.91 1574.32 Q2808.76 1580.05 2808.76 1590.98 Q2808.76 1601.89 2804.91 1607.65 Q2801.09 1613.38 2793.83 1613.38 Q2786.57 1613.38 2782.72 1607.65 Q2778.9 1601.89 2778.9 1590.98 Q2778.9 1580.05 2782.72 1574.32 Q2786.57 1568.56 2793.83 1568.56 Z" fill="#000000" fill-rule="evenodd" fill-opacity="1" /><path clip-path="url(#clip030)" d="M2831.53 1573.19 Q2827.02 1573.19 2824.73 1577.64 Q2822.48 1582.07 2822.48 1590.98 Q2822.48 1599.87 2824.73 1604.32 Q2827.02 1608.75 2831.53 1608.75 Q2836.08 1608.75 2838.33 1604.32 Q2840.62 1599.87 2840.62 1590.98 Q2840.62 1582.07 2838.33 1577.64 Q2836.08 1573.19 2831.53 1573.19 M2831.53 1568.56 Q2838.8 1568.56 2842.62 1574.32 Q2846.47 1580.05 2846.47 1590.98 Q2846.47 1601.89 2842.62 1607.65 Q2838.8 1613.38 2831.53 1613.38 Q2824.27 1613.38 2820.42 1607.65 Q2816.6 1601.89 2816.6 1590.98 Q2816.6 1580.05 2820.42 1574.32 Q2824.27 1568.56 2831.53 1568.56 Z" fill="#000000" fill-rule="evenodd" fill-opacity="1" /><path clip-path="url(#clip030)" d="M2869.24 1573.19 Q2864.72 1573.19 2862.44 1577.64 Q2860.18 1582.07 2860.18 1590.98 Q2860.18 1599.87 2862.44 1604.32 Q2864.72 1608.75 2869.24 1608.75 Q2873.78 1608.75 2876.04 1604.32 Q2878.32 1599.87 2878.32 1590.98 Q2878.32 1582.07 2876.04 1577.64 Q2873.78 1573.19 2869.24 1573.19 M2869.24 1568.56 Q2876.5 1568.56 2880.32 1574.32 Q2884.17 1580.05 2884.17 1590.98 Q2884.17 1601.89 2880.32 1607.65 Q2876.5 1613.38 2869.24 1613.38 Q2861.97 1613.38 2858.13 1607.65 Q2854.31 1601.89 2854.31 1590.98 Q2854.31 1580.05 2858.13 1574.32 Q2861.97 1568.56 2869.24 1568.56 Z" fill="#000000" fill-rule="evenodd" fill-opacity="1" /><path clip-path="url(#clip030)" d="M1680.18 1725.33 Q1677.02 1733.43 1674.02 1735.9 Q1671.02 1738.37 1666 1738.37 L1660.05 1738.37 L1660.05 1732.13 L1664.42 1732.13 Q1667.5 1732.13 1669.2 1730.68 Q1670.9 1729.22 1672.97 1723.79 L1674.3 1720.39 L1655.95 1675.75 L1663.85 1675.75 L1678.03 1711.23 L1692.21 1675.75 L1700.11 1675.75 L1680.18 1725.33 Z" fill="#000000" fill-rule="evenodd" fill-opacity="1" /><path clip-path="url(#clip030)" d="M1754.67 1658.16 Q1749.25 1667.48 1746.61 1676.6 Q1743.98 1685.71 1743.98 1695.07 Q1743.98 1704.43 1746.61 1713.62 Q1749.29 1722.78 1754.67 1732.05 L1748.19 1732.05 Q1742.12 1722.53 1739.08 1713.34 Q1736.08 1704.14 1736.08 1695.07 Q1736.08 1686.04 1739.08 1676.88 Q1742.08 1667.72 1748.19 1658.16 L1754.67 1658.16 Z" fill="#000000" fill-rule="evenodd" fill-opacity="1" /><path clip-path="url(#clip030)" d="M1804.46 1684.46 Q1807.26 1679.43 1811.14 1677.04 Q1815.03 1674.65 1820.3 1674.65 Q1827.39 1674.65 1831.24 1679.63 Q1835.09 1684.58 1835.09 1693.73 L1835.09 1721.12 L1827.59 1721.12 L1827.59 1693.97 Q1827.59 1687.45 1825.28 1684.29 Q1822.97 1681.13 1818.23 1681.13 Q1812.44 1681.13 1809.08 1684.98 Q1805.72 1688.83 1805.72 1695.47 L1805.72 1721.12 L1798.22 1721.12 L1798.22 1693.97 Q1798.22 1687.41 1795.91 1684.29 Q1793.6 1681.13 1788.78 1681.13 Q1783.07 1681.13 1779.71 1685.02 Q1776.35 1688.87 1776.35 1695.47 L1776.35 1721.12 L1768.85 1721.12 L1768.85 1675.75 L1776.35 1675.75 L1776.35 1682.79 Q1778.9 1678.62 1782.46 1676.64 Q1786.03 1674.65 1790.93 1674.65 Q1795.87 1674.65 1799.32 1677.16 Q1802.8 1679.68 1804.46 1684.46 Z" fill="#000000" fill-rule="evenodd" fill-opacity="1" /><path clip-path="url(#clip030)" d="M1848.78 1658.16 L1855.26 1658.16 Q1861.34 1667.72 1864.33 1676.88 Q1867.37 1686.04 1867.37 1695.07 Q1867.37 1704.14 1864.33 1713.34 Q1861.34 1722.53 1855.26 1732.05 L1848.78 1732.05 Q1854.17 1722.78 1856.8 1713.62 Q1859.47 1704.43 1859.47 1695.07 Q1859.47 1685.71 1856.8 1676.6 Q1854.17 1667.48 1848.78 1658.16 Z" fill="#000000" fill-rule="evenodd" fill-opacity="1" /><polyline clip-path="url(#clip032)" style="stroke:#000000; stroke-linecap:butt; stroke-linejoin:round; stroke-width:2; stroke-opacity:0.1; fill:none" points="
  370.569,1529.74 3152.76,1529.74 
  "/>
<polyline clip-path="url(#clip032)" style="stroke:#000000; stroke-linecap:butt; stroke-linejoin:round; stroke-width:2; stroke-opacity:0.1; fill:none" points="
  370.569,1233.24 3152.76,1233.24 
  "/>
<polyline clip-path="url(#clip032)" style="stroke:#000000; stroke-linecap:butt; stroke-linejoin:round; stroke-width:2; stroke-opacity:0.1; fill:none" points="
  370.569,936.742 3152.76,936.742 
  "/>
<polyline clip-path="url(#clip032)" style="stroke:#000000; stroke-linecap:butt; stroke-linejoin:round; stroke-width:2; stroke-opacity:0.1; fill:none" points="
  370.569,640.242 3152.76,640.242 
  "/>
<polyline clip-path="url(#clip032)" style="stroke:#000000; stroke-linecap:butt; stroke-linejoin:round; stroke-width:2; stroke-opacity:0.1; fill:none" points="
  370.569,343.743 3152.76,343.743 
  "/>
<polyline clip-path="url(#clip032)" style="stroke:#000000; stroke-linecap:butt; stroke-linejoin:round; stroke-width:2; stroke-opacity:0.1; fill:none" points="
  370.569,47.2441 3152.76,47.2441 
  "/>
<polyline clip-path="url(#clip030)" style="stroke:#000000; stroke-linecap:butt; stroke-linejoin:round; stroke-width:4; stroke-opacity:1; fill:none" points="
  370.569,1529.74 370.569,47.2441 
  "/>
<polyline clip-path="url(#clip030)" style="stroke:#000000; stroke-linecap:butt; stroke-linejoin:round; stroke-width:4; stroke-opacity:1; fill:none" points="
  370.569,1529.74 389.467,1529.74 
  "/>
<polyline clip-path="url(#clip030)" style="stroke:#000000; stroke-linecap:butt; stroke-linejoin:round; stroke-width:4; stroke-opacity:1; fill:none" points="
  370.569,1233.24 389.467,1233.24 
  "/>
<polyline clip-path="url(#clip030)" style="stroke:#000000; stroke-linecap:butt; stroke-linejoin:round; stroke-width:4; stroke-opacity:1; fill:none" points="
  370.569,936.742 389.467,936.742 
  "/>
<polyline clip-path="url(#clip030)" style="stroke:#000000; stroke-linecap:butt; stroke-linejoin:round; stroke-width:4; stroke-opacity:1; fill:none" points="
  370.569,640.242 389.467,640.242 
  "/>
<polyline clip-path="url(#clip030)" style="stroke:#000000; stroke-linecap:butt; stroke-linejoin:round; stroke-width:4; stroke-opacity:1; fill:none" points="
  370.569,343.743 389.467,343.743 
  "/>
<polyline clip-path="url(#clip030)" style="stroke:#000000; stroke-linecap:butt; stroke-linejoin:round; stroke-width:4; stroke-opacity:1; fill:none" points="
  370.569,47.2441 389.467,47.2441 
  "/>
<path clip-path="url(#clip030)" d="M301.639 1511.99 Q297.125 1511.99 294.839 1516.44 Q292.582 1520.87 292.582 1529.78 Q292.582 1538.67 294.839 1543.12 Q297.125 1547.55 301.639 1547.55 Q306.182 1547.55 308.439 1543.12 Q310.724 1538.67 310.724 1529.78 Q310.724 1520.87 308.439 1516.44 Q306.182 1511.99 301.639 1511.99 M301.639 1507.36 Q308.902 1507.36 312.721 1513.12 Q316.569 1518.85 316.569 1529.78 Q316.569 1540.69 312.721 1546.45 Q308.902 1552.18 301.639 1552.18 Q294.376 1552.18 290.528 1546.45 Q286.708 1540.69 286.708 1529.78 Q286.708 1518.85 290.528 1513.12 Q294.376 1507.36 301.639 1507.36 Z" fill="#000000" fill-rule="evenodd" fill-opacity="1" /><path clip-path="url(#clip030)" d="M251.494 1211.64 L274.44 1211.64 L274.44 1216.56 L256.847 1216.56 L256.847 1227.15 Q258.121 1226.72 259.394 1226.51 Q260.667 1226.28 261.94 1226.28 Q269.174 1226.28 273.398 1230.25 Q277.623 1234.21 277.623 1240.98 Q277.623 1247.95 273.283 1251.83 Q268.942 1255.68 261.043 1255.68 Q258.323 1255.68 255.487 1255.22 Q252.681 1254.75 249.672 1253.83 L249.672 1247.95 Q252.276 1249.37 255.053 1250.07 Q257.831 1250.76 260.927 1250.76 Q265.933 1250.76 268.855 1248.13 Q271.778 1245.49 271.778 1240.98 Q271.778 1236.47 268.855 1233.83 Q265.933 1231.2 260.927 1231.2 Q258.584 1231.2 256.24 1231.72 Q253.925 1232.24 251.494 1233.34 L251.494 1211.64 Z" fill="#000000" fill-rule="evenodd" fill-opacity="1" /><path clip-path="url(#clip030)" d="M301.639 1215.49 Q297.125 1215.49 294.839 1219.95 Q292.582 1224.37 292.582 1233.28 Q292.582 1242.17 294.839 1246.62 Q297.125 1251.05 301.639 1251.05 Q306.182 1251.05 308.439 1246.62 Q310.724 1242.17 310.724 1233.28 Q310.724 1224.37 308.439 1219.95 Q306.182 1215.49 301.639 1215.49 M301.639 1210.86 Q308.902 1210.86 312.721 1216.62 Q316.569 1222.35 316.569 1233.28 Q316.569 1244.19 312.721 1249.95 Q308.902 1255.68 301.639 1255.68 Q294.376 1255.68 290.528 1249.95 Q286.708 1244.19 286.708 1233.28 Q286.708 1222.35 290.528 1216.62 Q294.376 1210.86 301.639 1210.86 Z" fill="#000000" fill-rule="evenodd" fill-opacity="1" /><path clip-path="url(#clip030)" d="M214.747 953.423 L224.296 953.423 L224.296 920.466 L213.908 922.549 L213.908 917.225 L224.238 915.142 L230.083 915.142 L230.083 953.423 L239.631 953.423 L239.631 958.342 L214.747 958.342 L214.747 953.423 Z" fill="#000000" fill-rule="evenodd" fill-opacity="1" /><path clip-path="url(#clip030)" d="M263.937 918.99 Q259.423 918.99 257.137 923.446 Q254.88 927.873 254.88 936.785 Q254.88 945.668 257.137 950.124 Q259.423 954.551 263.937 954.551 Q268.479 954.551 270.736 950.124 Q273.022 945.668 273.022 936.785 Q273.022 927.873 270.736 923.446 Q268.479 918.99 263.937 918.99 M263.937 914.36 Q271.199 914.36 275.019 920.118 Q278.867 925.848 278.867 936.785 Q278.867 947.693 275.019 953.452 Q271.199 959.181 263.937 959.181 Q256.674 959.181 252.825 953.452 Q249.006 947.693 249.006 936.785 Q249.006 925.848 252.825 920.118 Q256.674 914.36 263.937 914.36 Z" fill="#000000" fill-rule="evenodd" fill-opacity="1" /><path clip-path="url(#clip030)" d="M301.639 918.99 Q297.125 918.99 294.839 923.446 Q292.582 927.873 292.582 936.785 Q292.582 945.668 294.839 950.124 Q297.125 954.551 301.639 954.551 Q306.182 954.551 308.439 950.124 Q310.724 945.668 310.724 936.785 Q310.724 927.873 308.439 923.446 Q306.182 918.99 301.639 918.99 M301.639 914.36 Q308.902 914.36 312.721 920.118 Q316.569 925.848 316.569 936.785 Q316.569 947.693 312.721 953.452 Q308.902 959.181 301.639 959.181 Q294.376 959.181 290.528 953.452 Q286.708 947.693 286.708 936.785 Q286.708 925.848 290.528 920.118 Q294.376 914.36 301.639 914.36 Z" fill="#000000" fill-rule="evenodd" fill-opacity="1" /><path clip-path="url(#clip030)" d="M214.747 656.923 L224.296 656.923 L224.296 623.966 L213.908 626.05 L213.908 620.726 L224.238 618.642 L230.083 618.642 L230.083 656.923 L239.631 656.923 L239.631 661.842 L214.747 661.842 L214.747 656.923 Z" fill="#000000" fill-rule="evenodd" fill-opacity="1" /><path clip-path="url(#clip030)" d="M251.494 618.642 L274.44 618.642 L274.44 623.561 L256.847 623.561 L256.847 634.152 Q258.121 633.718 259.394 633.515 Q260.667 633.284 261.94 633.284 Q269.174 633.284 273.398 637.248 Q277.623 641.212 277.623 647.983 Q277.623 654.956 273.283 658.833 Q268.942 662.682 261.043 662.682 Q258.323 662.682 255.487 662.219 Q252.681 661.756 249.672 660.83 L249.672 654.956 Q252.276 656.374 255.053 657.068 Q257.831 657.763 260.927 657.763 Q265.933 657.763 268.855 655.129 Q271.778 652.496 271.778 647.983 Q271.778 643.469 268.855 640.836 Q265.933 638.202 260.927 638.202 Q258.584 638.202 256.24 638.723 Q253.925 639.244 251.494 640.344 L251.494 618.642 Z" fill="#000000" fill-rule="evenodd" fill-opacity="1" /><path clip-path="url(#clip030)" d="M301.639 622.491 Q297.125 622.491 294.839 626.947 Q292.582 631.374 292.582 640.286 Q292.582 649.169 294.839 653.625 Q297.125 658.052 301.639 658.052 Q306.182 658.052 308.439 653.625 Q310.724 649.169 310.724 640.286 Q310.724 631.374 308.439 626.947 Q306.182 622.491 301.639 622.491 M301.639 617.861 Q308.902 617.861 312.721 623.619 Q316.569 629.348 316.569 640.286 Q316.569 651.194 312.721 656.952 Q308.902 662.682 301.639 662.682 Q294.376 662.682 290.528 656.952 Q286.708 651.194 286.708 640.286 Q286.708 629.348 290.528 623.619 Q294.376 617.861 301.639 617.861 Z" fill="#000000" fill-rule="evenodd" fill-opacity="1" /><path clip-path="url(#clip030)" d="M218.769 360.424 L239.168 360.424 L239.168 365.343 L211.738 365.343 L211.738 360.424 Q215.065 356.981 220.794 351.194 Q226.552 345.378 228.028 343.7 Q230.835 340.546 231.934 338.376 Q233.063 336.177 233.063 334.064 Q233.063 330.621 230.632 328.451 Q228.231 326.281 224.353 326.281 Q221.605 326.281 218.537 327.236 Q215.499 328.191 212.027 330.129 L212.027 324.227 Q215.557 322.809 218.624 322.085 Q221.691 321.362 224.238 321.362 Q230.951 321.362 234.944 324.718 Q238.937 328.075 238.937 333.688 Q238.937 336.35 237.924 338.752 Q236.94 341.125 234.307 344.365 Q233.584 345.204 229.706 349.226 Q225.829 353.219 218.769 360.424 Z" fill="#000000" fill-rule="evenodd" fill-opacity="1" /><path clip-path="url(#clip030)" d="M263.937 325.992 Q259.423 325.992 257.137 330.448 Q254.88 334.875 254.88 343.787 Q254.88 352.67 257.137 357.126 Q259.423 361.553 263.937 361.553 Q268.479 361.553 270.736 357.126 Q273.022 352.67 273.022 343.787 Q273.022 334.875 270.736 330.448 Q268.479 325.992 263.937 325.992 M263.937 321.362 Q271.199 321.362 275.019 327.12 Q278.867 332.849 278.867 343.787 Q278.867 354.695 275.019 360.453 Q271.199 366.182 263.937 366.182 Q256.674 366.182 252.825 360.453 Q249.006 354.695 249.006 343.787 Q249.006 332.849 252.825 327.12 Q256.674 321.362 263.937 321.362 Z" fill="#000000" fill-rule="evenodd" fill-opacity="1" /><path clip-path="url(#clip030)" d="M301.639 325.992 Q297.125 325.992 294.839 330.448 Q292.582 334.875 292.582 343.787 Q292.582 352.67 294.839 357.126 Q297.125 361.553 301.639 361.553 Q306.182 361.553 308.439 357.126 Q310.724 352.67 310.724 343.787 Q310.724 334.875 308.439 330.448 Q306.182 325.992 301.639 325.992 M301.639 321.362 Q308.902 321.362 312.721 327.12 Q316.569 332.849 316.569 343.787 Q316.569 354.695 312.721 360.453 Q308.902 366.182 301.639 366.182 Q294.376 366.182 290.528 360.453 Q286.708 354.695 286.708 343.787 Q286.708 332.849 290.528 327.12 Q294.376 321.362 301.639 321.362 Z" fill="#000000" fill-rule="evenodd" fill-opacity="1" /><path clip-path="url(#clip030)" d="M218.769 63.9251 L239.168 63.9251 L239.168 68.8441 L211.738 68.8441 L211.738 63.9251 Q215.065 60.4819 220.794 54.6949 Q226.552 48.8789 228.028 47.2007 Q230.835 44.0468 231.934 41.8766 Q233.063 39.6776 233.063 37.5653 Q233.063 34.1221 230.632 31.9519 Q228.231 29.7818 224.353 29.7818 Q221.605 29.7818 218.537 30.7367 Q215.499 31.6915 212.027 33.6302 L212.027 27.7274 Q215.557 26.3096 218.624 25.5862 Q221.691 24.8628 224.238 24.8628 Q230.951 24.8628 234.944 28.2193 Q238.937 31.5758 238.937 37.1892 Q238.937 39.8512 237.924 42.2528 Q236.94 44.6255 234.307 47.8662 Q233.584 48.7053 229.706 52.7273 Q225.829 56.7203 218.769 63.9251 Z" fill="#000000" fill-rule="evenodd" fill-opacity="1" /><path clip-path="url(#clip030)" d="M251.494 25.6441 L274.44 25.6441 L274.44 30.563 L256.847 30.563 L256.847 41.1533 Q258.121 40.7192 259.394 40.5167 Q260.667 40.2852 261.94 40.2852 Q269.174 40.2852 273.398 44.2493 Q277.623 48.2134 277.623 54.9842 Q277.623 61.9576 273.283 65.8349 Q268.942 69.6832 261.043 69.6832 Q258.323 69.6832 255.487 69.2202 Q252.681 68.7573 249.672 67.8314 L249.672 61.9576 Q252.276 63.3754 255.053 64.0698 Q257.831 64.7643 260.927 64.7643 Q265.933 64.7643 268.855 62.1312 Q271.778 59.4981 271.778 54.9842 Q271.778 50.4704 268.855 47.8373 Q265.933 45.2042 260.927 45.2042 Q258.584 45.2042 256.24 45.725 Q253.925 46.2458 251.494 47.3454 L251.494 25.6441 Z" fill="#000000" fill-rule="evenodd" fill-opacity="1" /><path clip-path="url(#clip030)" d="M301.639 29.4925 Q297.125 29.4925 294.839 33.9484 Q292.582 38.3755 292.582 47.2875 Q292.582 56.1706 294.839 60.6265 Q297.125 65.0536 301.639 65.0536 Q306.182 65.0536 308.439 60.6265 Q310.724 56.1706 310.724 47.2875 Q310.724 38.3755 308.439 33.9484 Q306.182 29.4925 301.639 29.4925 M301.639 24.8628 Q308.902 24.8628 312.721 30.6209 Q316.569 36.3501 316.569 47.2875 Q316.569 58.196 312.721 63.9541 Q308.902 69.6832 301.639 69.6832 Q294.376 69.6832 290.528 63.9541 Q286.708 58.196 286.708 47.2875 Q286.708 36.3501 290.528 30.6209 Q294.376 24.8628 301.639 24.8628 Z" fill="#000000" fill-rule="evenodd" fill-opacity="1" /><path clip-path="url(#clip030)" d="M143.807 1044.53 Q151.908 1047.69 154.38 1050.69 Q156.851 1053.68 156.851 1058.71 L156.851 1064.66 L150.612 1064.66 L150.612 1060.29 Q150.612 1057.21 149.154 1055.51 Q147.696 1053.81 142.267 1051.74 L138.865 1050.4 L94.2236 1068.75 L94.2236 1060.85 L129.71 1046.68 L94.2236 1032.5 L94.2236 1024.6 L143.807 1044.53 Z" fill="#000000" fill-rule="evenodd" fill-opacity="1" /><path clip-path="url(#clip030)" d="M113.546 1019.54 L113.546 997.701 L120.19 997.701 L120.19 1019.54 L113.546 1019.54 Z" fill="#000000" fill-rule="evenodd" fill-opacity="1" /><path clip-path="url(#clip030)" d="M95.5604 956.908 L102.609 956.908 Q100.989 960.068 100.178 963.471 Q99.3682 966.874 99.3682 970.519 Q99.3682 976.069 101.07 978.864 Q102.771 981.619 106.174 981.619 Q108.766 981.619 110.265 979.634 Q111.723 977.649 113.06 971.654 L113.627 969.102 Q115.329 961.162 118.448 957.84 Q121.527 954.478 127.076 954.478 Q133.396 954.478 137.082 959.501 Q140.768 964.484 140.768 973.233 Q140.768 976.879 140.039 980.849 Q139.351 984.779 137.933 989.154 L130.236 989.154 Q132.383 985.022 133.477 981.011 Q134.53 977.001 134.53 973.071 Q134.53 967.805 132.748 964.97 Q130.925 962.134 127.644 962.134 Q124.605 962.134 122.985 964.2 Q121.365 966.225 119.866 973.152 L119.258 975.745 Q117.8 982.672 114.802 985.751 Q111.764 988.829 106.498 988.829 Q100.097 988.829 96.6136 984.292 Q93.1298 979.755 93.1298 971.411 Q93.1298 967.279 93.7375 963.633 Q94.3451 959.987 95.5604 956.908 Z" fill="#000000" fill-rule="evenodd" fill-opacity="1" /><path clip-path="url(#clip030)" d="M132.788 935.398 L156.851 935.398 L156.851 942.892 L94.2236 942.892 L94.2236 935.398 L101.11 935.398 Q97.0592 933.048 95.1148 929.484 Q93.1298 925.878 93.1298 920.896 Q93.1298 912.632 99.6923 907.487 Q106.255 902.302 116.949 902.302 Q127.644 902.302 134.206 907.487 Q140.768 912.632 140.768 920.896 Q140.768 925.878 138.824 929.484 Q136.839 933.048 132.788 935.398 M116.949 910.039 Q108.726 910.039 104.067 913.442 Q99.3682 916.804 99.3682 922.719 Q99.3682 928.633 104.067 932.036 Q108.726 935.398 116.949 935.398 Q125.173 935.398 129.872 932.036 Q134.53 928.633 134.53 922.719 Q134.53 916.804 129.872 913.442 Q125.173 910.039 116.949 910.039 Z" fill="#000000" fill-rule="evenodd" fill-opacity="1" /><path clip-path="url(#clip030)" d="M116.787 869.328 Q116.787 878.361 118.853 881.845 Q120.919 885.329 125.902 885.329 Q129.872 885.329 132.221 882.736 Q134.53 880.103 134.53 875.607 Q134.53 869.409 130.155 865.682 Q125.74 861.915 118.448 861.915 L116.787 861.915 L116.787 869.328 M113.708 854.461 L139.594 854.461 L139.594 861.915 L132.707 861.915 Q136.839 864.467 138.824 868.275 Q140.768 872.082 140.768 877.592 Q140.768 884.559 136.88 888.691 Q132.95 892.782 126.388 892.782 Q118.732 892.782 114.843 887.678 Q110.954 882.534 110.954 872.366 L110.954 861.915 L110.225 861.915 Q105.08 861.915 102.285 865.317 Q99.4493 868.68 99.4493 874.796 Q99.4493 878.685 100.381 882.372 Q101.313 886.058 103.176 889.461 L96.2896 889.461 Q94.7097 885.369 93.94 881.521 Q93.1298 877.673 93.1298 874.027 Q93.1298 864.183 98.234 859.322 Q103.338 854.461 113.708 854.461 Z" fill="#000000" fill-rule="evenodd" fill-opacity="1" /><path clip-path="url(#clip030)" d="M95.9655 806.458 L102.933 806.458 Q101.191 809.617 100.34 812.818 Q99.4493 815.977 99.4493 819.218 Q99.4493 826.469 104.067 830.48 Q108.645 834.49 116.949 834.49 Q125.254 834.49 129.872 830.48 Q134.449 826.469 134.449 819.218 Q134.449 815.977 133.598 812.818 Q132.707 809.617 130.965 806.458 L137.852 806.458 Q139.31 809.577 140.039 812.939 Q140.768 816.261 140.768 820.028 Q140.768 830.277 134.328 836.313 Q127.887 842.349 116.949 842.349 Q105.85 842.349 99.4898 836.272 Q93.1298 830.156 93.1298 819.542 Q93.1298 816.099 93.859 812.818 Q94.5477 809.536 95.9655 806.458 Z" fill="#000000" fill-rule="evenodd" fill-opacity="1" /><path clip-path="url(#clip030)" d="M94.2236 793.495 L94.2236 786.041 L139.594 786.041 L139.594 793.495 L94.2236 793.495 M76.5616 793.495 L76.5616 786.041 L86.0003 786.041 L86.0003 793.495 L76.5616 793.495 Z" fill="#000000" fill-rule="evenodd" fill-opacity="1" /><path clip-path="url(#clip030)" d="M112.21 732.731 L139.594 732.731 L139.594 740.185 L112.453 740.185 Q106.012 740.185 102.812 742.696 Q99.6113 745.208 99.6113 750.231 Q99.6113 756.267 103.46 759.751 Q107.308 763.235 113.951 763.235 L139.594 763.235 L139.594 770.729 L94.2236 770.729 L94.2236 763.235 L101.272 763.235 Q97.1808 760.561 95.1553 756.956 Q93.1298 753.31 93.1298 748.57 Q93.1298 740.752 97.9909 736.742 Q102.812 732.731 112.21 732.731 Z" fill="#000000" fill-rule="evenodd" fill-opacity="1" /><path clip-path="url(#clip030)" d="M116.382 688.009 Q108.28 688.009 103.824 691.372 Q99.3682 694.693 99.3682 700.729 Q99.3682 706.724 103.824 710.087 Q108.28 713.408 116.382 713.408 Q124.443 713.408 128.899 710.087 Q133.355 706.724 133.355 700.729 Q133.355 694.693 128.899 691.372 Q124.443 688.009 116.382 688.009 M133.963 680.556 Q145.549 680.556 151.179 685.7 Q156.851 690.845 156.851 701.458 Q156.851 705.388 156.243 708.871 Q155.676 712.355 154.461 715.636 L147.209 715.636 Q148.992 712.355 149.843 709.155 Q150.693 705.955 150.693 702.633 Q150.693 695.301 146.845 691.655 Q143.037 688.009 135.3 688.009 L131.613 688.009 Q135.624 690.318 137.609 693.924 Q139.594 697.529 139.594 702.552 Q139.594 710.897 133.234 716.001 Q126.874 721.105 116.382 721.105 Q105.85 721.105 99.4898 716.001 Q93.1298 710.897 93.1298 702.552 Q93.1298 697.529 95.1148 693.924 Q97.0997 690.318 101.11 688.009 L94.2236 688.009 L94.2236 680.556 L133.963 680.556 Z" fill="#000000" fill-rule="evenodd" fill-opacity="1" /><path clip-path="url(#clip030)" d="M76.6427 620.926 Q85.9597 626.355 95.0743 628.988 Q104.189 631.621 113.546 631.621 Q122.904 631.621 132.1 628.988 Q141.255 626.314 150.531 620.926 L150.531 627.408 Q141.012 633.484 131.816 636.522 Q122.62 639.52 113.546 639.52 Q104.513 639.52 95.3578 636.522 Q86.2028 633.525 76.6427 627.408 L76.6427 620.926 Z" fill="#000000" fill-rule="evenodd" fill-opacity="1" /><path clip-path="url(#clip030)" d="M102.933 571.141 Q97.9099 568.346 95.5199 564.457 Q93.1298 560.568 93.1298 555.302 Q93.1298 548.213 98.1125 544.364 Q103.055 540.516 112.21 540.516 L139.594 540.516 L139.594 548.01 L112.453 548.01 Q105.931 548.01 102.771 550.319 Q99.6113 552.628 99.6113 557.368 Q99.6113 563.16 103.46 566.523 Q107.308 569.885 113.951 569.885 L139.594 569.885 L139.594 577.379 L112.453 577.379 Q105.89 577.379 102.771 579.688 Q99.6113 581.997 99.6113 586.818 Q99.6113 592.529 103.5 595.892 Q107.349 599.254 113.951 599.254 L139.594 599.254 L139.594 606.748 L94.2236 606.748 L94.2236 599.254 L101.272 599.254 Q97.0997 596.702 95.1148 593.137 Q93.1298 589.572 93.1298 584.671 Q93.1298 579.729 95.6414 576.285 Q98.153 572.802 102.933 571.141 Z" fill="#000000" fill-rule="evenodd" fill-opacity="1" /><path clip-path="url(#clip030)" d="M76.6427 526.824 L76.6427 520.342 Q86.2028 514.266 95.3578 511.268 Q104.513 508.23 113.546 508.23 Q122.62 508.23 131.816 511.268 Q141.012 514.266 150.531 520.342 L150.531 526.824 Q141.255 521.436 132.1 518.803 Q122.904 516.129 113.546 516.129 Q104.189 516.129 95.0743 518.803 Q85.9597 521.436 76.6427 526.824 Z" fill="#000000" fill-rule="evenodd" fill-opacity="1" /><polyline clip-path="url(#clip032)" style="stroke:#009af9; stroke-linecap:butt; stroke-linejoin:round; stroke-width:12; stroke-opacity:1; fill:none" points="
  449.31,1494.03 452.472,1422.68 458.788,1351.6 468.242,1280.94 480.812,1210.88 496.468,1141.6 515.172,1073.24 536.879,1005.99 561.536,939.996 589.085,875.425 
  619.458,812.43 652.583,751.163 688.38,691.772 726.763,634.399 767.639,579.183 810.909,526.258 856.47,475.75 904.212,427.781 954.019,382.467 1005.77,339.916 
  1059.35,300.232 1114.61,263.51 1171.44,229.839 1229.68,199.299 1289.21,171.964 1349.88,147.9 1411.54,127.166 1474.04,109.81 1537.23,95.8745 1600.97,85.3936 
  1665.09,78.3923 1729.45,74.8875 1793.88,74.8875 1858.23,78.3923 1922.36,85.3936 1986.09,95.8745 2049.29,109.81 2111.79,127.166 2173.45,147.9 2234.11,171.964 
  2293.64,199.299 2351.89,229.839 2408.71,263.51 2463.98,300.232 2517.55,339.916 2569.31,382.467 2619.11,427.781 2666.86,475.75 2712.42,526.258 2755.69,579.183 
  2796.56,634.399 2834.95,691.772 2870.74,751.163 2903.87,812.43 2934.24,875.425 2961.79,939.996 2986.45,1005.99 3008.15,1073.24 3026.86,1141.6 3042.51,1210.88 
  3055.08,1280.94 3064.54,1351.6 3070.85,1422.68 3074.01,1494.03 
  "/>
<circle clip-path="url(#clip032)" cx="449.31" cy="1494.03" r="14" fill="#009af9" fill-rule="evenodd" fill-opacity="1" stroke="#000000" stroke-opacity="1" stroke-width="6.4"/>
<circle clip-path="url(#clip032)" cx="452.472" cy="1422.68" r="14" fill="#009af9" fill-rule="evenodd" fill-opacity="1" stroke="#000000" stroke-opacity="1" stroke-width="6.4"/>
<circle clip-path="url(#clip032)" cx="458.788" cy="1351.6" r="14" fill="#009af9" fill-rule="evenodd" fill-opacity="1" stroke="#000000" stroke-opacity="1" stroke-width="6.4"/>
<circle clip-path="url(#clip032)" cx="468.242" cy="1280.94" r="14" fill="#009af9" fill-rule="evenodd" fill-opacity="1" stroke="#000000" stroke-opacity="1" stroke-width="6.4"/>
<circle clip-path="url(#clip032)" cx="480.812" cy="1210.88" r="14" fill="#009af9" fill-rule="evenodd" fill-opacity="1" stroke="#000000" stroke-opacity="1" stroke-width="6.4"/>
<circle clip-path="url(#clip032)" cx="496.468" cy="1141.6" r="14" fill="#009af9" fill-rule="evenodd" fill-opacity="1" stroke="#000000" stroke-opacity="1" stroke-width="6.4"/>
<circle clip-path="url(#clip032)" cx="515.172" cy="1073.24" r="14" fill="#009af9" fill-rule="evenodd" fill-opacity="1" stroke="#000000" stroke-opacity="1" stroke-width="6.4"/>
<circle clip-path="url(#clip032)" cx="536.879" cy="1005.99" r="14" fill="#009af9" fill-rule="evenodd" fill-opacity="1" stroke="#000000" stroke-opacity="1" stroke-width="6.4"/>
<circle clip-path="url(#clip032)" cx="561.536" cy="939.996" r="14" fill="#009af9" fill-rule="evenodd" fill-opacity="1" stroke="#000000" stroke-opacity="1" stroke-width="6.4"/>
<circle clip-path="url(#clip032)" cx="589.085" cy="875.425" r="14" fill="#009af9" fill-rule="evenodd" fill-opacity="1" stroke="#000000" stroke-opacity="1" stroke-width="6.4"/>
<circle clip-path="url(#clip032)" cx="619.458" cy="812.43" r="14" fill="#009af9" fill-rule="evenodd" fill-opacity="1" stroke="#000000" stroke-opacity="1" stroke-width="6.4"/>
<circle clip-path="url(#clip032)" cx="652.583" cy="751.163" r="14" fill="#009af9" fill-rule="evenodd" fill-opacity="1" stroke="#000000" stroke-opacity="1" stroke-width="6.4"/>
<circle clip-path="url(#clip032)" cx="688.38" cy="691.772" r="14" fill="#009af9" fill-rule="evenodd" fill-opacity="1" stroke="#000000" stroke-opacity="1" stroke-width="6.4"/>
<circle clip-path="url(#clip032)" cx="726.763" cy="634.399" r="14" fill="#009af9" fill-rule="evenodd" fill-opacity="1" stroke="#000000" stroke-opacity="1" stroke-width="6.4"/>
<circle clip-path="url(#clip032)" cx="767.639" cy="579.183" r="14" fill="#009af9" fill-rule="evenodd" fill-opacity="1" stroke="#000000" stroke-opacity="1" stroke-width="6.4"/>
<circle clip-path="url(#clip032)" cx="810.909" cy="526.258" r="14" fill="#009af9" fill-rule="evenodd" fill-opacity="1" stroke="#000000" stroke-opacity="1" stroke-width="6.4"/>
<circle clip-path="url(#clip032)" cx="856.47" cy="475.75" r="14" fill="#009af9" fill-rule="evenodd" fill-opacity="1" stroke="#000000" stroke-opacity="1" stroke-width="6.4"/>
<circle clip-path="url(#clip032)" cx="904.212" cy="427.781" r="14" fill="#009af9" fill-rule="evenodd" fill-opacity="1" stroke="#000000" stroke-opacity="1" stroke-width="6.4"/>
<circle clip-path="url(#clip032)" cx="954.019" cy="382.467" r="14" fill="#009af9" fill-rule="evenodd" fill-opacity="1" stroke="#000000" stroke-opacity="1" stroke-width="6.4"/>
<circle clip-path="url(#clip032)" cx="1005.77" cy="339.916" r="14" fill="#009af9" fill-rule="evenodd" fill-opacity="1" stroke="#000000" stroke-opacity="1" stroke-width="6.4"/>
<circle clip-path="url(#clip032)" cx="1059.35" cy="300.232" r="14" fill="#009af9" fill-rule="evenodd" fill-opacity="1" stroke="#000000" stroke-opacity="1" stroke-width="6.4"/>
<circle clip-path="url(#clip032)" cx="1114.61" cy="263.51" r="14" fill="#009af9" fill-rule="evenodd" fill-opacity="1" stroke="#000000" stroke-opacity="1" stroke-width="6.4"/>
<circle clip-path="url(#clip032)" cx="1171.44" cy="229.839" r="14" fill="#009af9" fill-rule="evenodd" fill-opacity="1" stroke="#000000" stroke-opacity="1" stroke-width="6.4"/>
<circle clip-path="url(#clip032)" cx="1229.68" cy="199.299" r="14" fill="#009af9" fill-rule="evenodd" fill-opacity="1" stroke="#000000" stroke-opacity="1" stroke-width="6.4"/>
<circle clip-path="url(#clip032)" cx="1289.21" cy="171.964" r="14" fill="#009af9" fill-rule="evenodd" fill-opacity="1" stroke="#000000" stroke-opacity="1" stroke-width="6.4"/>
<circle clip-path="url(#clip032)" cx="1349.88" cy="147.9" r="14" fill="#009af9" fill-rule="evenodd" fill-opacity="1" stroke="#000000" stroke-opacity="1" stroke-width="6.4"/>
<circle clip-path="url(#clip032)" cx="1411.54" cy="127.166" r="14" fill="#009af9" fill-rule="evenodd" fill-opacity="1" stroke="#000000" stroke-opacity="1" stroke-width="6.4"/>
<circle clip-path="url(#clip032)" cx="1474.04" cy="109.81" r="14" fill="#009af9" fill-rule="evenodd" fill-opacity="1" stroke="#000000" stroke-opacity="1" stroke-width="6.4"/>
<circle clip-path="url(#clip032)" cx="1537.23" cy="95.8745" r="14" fill="#009af9" fill-rule="evenodd" fill-opacity="1" stroke="#000000" stroke-opacity="1" stroke-width="6.4"/>
<circle clip-path="url(#clip032)" cx="1600.97" cy="85.3936" r="14" fill="#009af9" fill-rule="evenodd" fill-opacity="1" stroke="#000000" stroke-opacity="1" stroke-width="6.4"/>
<circle clip-path="url(#clip032)" cx="1665.09" cy="78.3923" r="14" fill="#009af9" fill-rule="evenodd" fill-opacity="1" stroke="#000000" stroke-opacity="1" stroke-width="6.4"/>
<circle clip-path="url(#clip032)" cx="1729.45" cy="74.8875" r="14" fill="#009af9" fill-rule="evenodd" fill-opacity="1" stroke="#000000" stroke-opacity="1" stroke-width="6.4"/>
<circle clip-path="url(#clip032)" cx="1793.88" cy="74.8875" r="14" fill="#009af9" fill-rule="evenodd" fill-opacity="1" stroke="#000000" stroke-opacity="1" stroke-width="6.4"/>
<circle clip-path="url(#clip032)" cx="1858.23" cy="78.3923" r="14" fill="#009af9" fill-rule="evenodd" fill-opacity="1" stroke="#000000" stroke-opacity="1" stroke-width="6.4"/>
<circle clip-path="url(#clip032)" cx="1922.36" cy="85.3936" r="14" fill="#009af9" fill-rule="evenodd" fill-opacity="1" stroke="#000000" stroke-opacity="1" stroke-width="6.4"/>
<circle clip-path="url(#clip032)" cx="1986.09" cy="95.8745" r="14" fill="#009af9" fill-rule="evenodd" fill-opacity="1" stroke="#000000" stroke-opacity="1" stroke-width="6.4"/>
<circle clip-path="url(#clip032)" cx="2049.29" cy="109.81" r="14" fill="#009af9" fill-rule="evenodd" fill-opacity="1" stroke="#000000" stroke-opacity="1" stroke-width="6.4"/>
<circle clip-path="url(#clip032)" cx="2111.79" cy="127.166" r="14" fill="#009af9" fill-rule="evenodd" fill-opacity="1" stroke="#000000" stroke-opacity="1" stroke-width="6.4"/>
<circle clip-path="url(#clip032)" cx="2173.45" cy="147.9" r="14" fill="#009af9" fill-rule="evenodd" fill-opacity="1" stroke="#000000" stroke-opacity="1" stroke-width="6.4"/>
<circle clip-path="url(#clip032)" cx="2234.11" cy="171.964" r="14" fill="#009af9" fill-rule="evenodd" fill-opacity="1" stroke="#000000" stroke-opacity="1" stroke-width="6.4"/>
<circle clip-path="url(#clip032)" cx="2293.64" cy="199.299" r="14" fill="#009af9" fill-rule="evenodd" fill-opacity="1" stroke="#000000" stroke-opacity="1" stroke-width="6.4"/>
<circle clip-path="url(#clip032)" cx="2351.89" cy="229.839" r="14" fill="#009af9" fill-rule="evenodd" fill-opacity="1" stroke="#000000" stroke-opacity="1" stroke-width="6.4"/>
<circle clip-path="url(#clip032)" cx="2408.71" cy="263.51" r="14" fill="#009af9" fill-rule="evenodd" fill-opacity="1" stroke="#000000" stroke-opacity="1" stroke-width="6.4"/>
<circle clip-path="url(#clip032)" cx="2463.98" cy="300.232" r="14" fill="#009af9" fill-rule="evenodd" fill-opacity="1" stroke="#000000" stroke-opacity="1" stroke-width="6.4"/>
<circle clip-path="url(#clip032)" cx="2517.55" cy="339.916" r="14" fill="#009af9" fill-rule="evenodd" fill-opacity="1" stroke="#000000" stroke-opacity="1" stroke-width="6.4"/>
<circle clip-path="url(#clip032)" cx="2569.31" cy="382.467" r="14" fill="#009af9" fill-rule="evenodd" fill-opacity="1" stroke="#000000" stroke-opacity="1" stroke-width="6.4"/>
<circle clip-path="url(#clip032)" cx="2619.11" cy="427.781" r="14" fill="#009af9" fill-rule="evenodd" fill-opacity="1" stroke="#000000" stroke-opacity="1" stroke-width="6.4"/>
<circle clip-path="url(#clip032)" cx="2666.86" cy="475.75" r="14" fill="#009af9" fill-rule="evenodd" fill-opacity="1" stroke="#000000" stroke-opacity="1" stroke-width="6.4"/>
<circle clip-path="url(#clip032)" cx="2712.42" cy="526.258" r="14" fill="#009af9" fill-rule="evenodd" fill-opacity="1" stroke="#000000" stroke-opacity="1" stroke-width="6.4"/>
<circle clip-path="url(#clip032)" cx="2755.69" cy="579.183" r="14" fill="#009af9" fill-rule="evenodd" fill-opacity="1" stroke="#000000" stroke-opacity="1" stroke-width="6.4"/>
<circle clip-path="url(#clip032)" cx="2796.56" cy="634.399" r="14" fill="#009af9" fill-rule="evenodd" fill-opacity="1" stroke="#000000" stroke-opacity="1" stroke-width="6.4"/>
<circle clip-path="url(#clip032)" cx="2834.95" cy="691.772" r="14" fill="#009af9" fill-rule="evenodd" fill-opacity="1" stroke="#000000" stroke-opacity="1" stroke-width="6.4"/>
<circle clip-path="url(#clip032)" cx="2870.74" cy="751.163" r="14" fill="#009af9" fill-rule="evenodd" fill-opacity="1" stroke="#000000" stroke-opacity="1" stroke-width="6.4"/>
<circle clip-path="url(#clip032)" cx="2903.87" cy="812.43" r="14" fill="#009af9" fill-rule="evenodd" fill-opacity="1" stroke="#000000" stroke-opacity="1" stroke-width="6.4"/>
<circle clip-path="url(#clip032)" cx="2934.24" cy="875.425" r="14" fill="#009af9" fill-rule="evenodd" fill-opacity="1" stroke="#000000" stroke-opacity="1" stroke-width="6.4"/>
<circle clip-path="url(#clip032)" cx="2961.79" cy="939.996" r="14" fill="#009af9" fill-rule="evenodd" fill-opacity="1" stroke="#000000" stroke-opacity="1" stroke-width="6.4"/>
<circle clip-path="url(#clip032)" cx="2986.45" cy="1005.99" r="14" fill="#009af9" fill-rule="evenodd" fill-opacity="1" stroke="#000000" stroke-opacity="1" stroke-width="6.4"/>
<circle clip-path="url(#clip032)" cx="3008.15" cy="1073.24" r="14" fill="#009af9" fill-rule="evenodd" fill-opacity="1" stroke="#000000" stroke-opacity="1" stroke-width="6.4"/>
<circle clip-path="url(#clip032)" cx="3026.86" cy="1141.6" r="14" fill="#009af9" fill-rule="evenodd" fill-opacity="1" stroke="#000000" stroke-opacity="1" stroke-width="6.4"/>
<circle clip-path="url(#clip032)" cx="3042.51" cy="1210.88" r="14" fill="#009af9" fill-rule="evenodd" fill-opacity="1" stroke="#000000" stroke-opacity="1" stroke-width="6.4"/>
<circle clip-path="url(#clip032)" cx="3055.08" cy="1280.94" r="14" fill="#009af9" fill-rule="evenodd" fill-opacity="1" stroke="#000000" stroke-opacity="1" stroke-width="6.4"/>
<circle clip-path="url(#clip032)" cx="3064.54" cy="1351.6" r="14" fill="#009af9" fill-rule="evenodd" fill-opacity="1" stroke="#000000" stroke-opacity="1" stroke-width="6.4"/>
<circle clip-path="url(#clip032)" cx="3070.85" cy="1422.68" r="14" fill="#009af9" fill-rule="evenodd" fill-opacity="1" stroke="#000000" stroke-opacity="1" stroke-width="6.4"/>
<circle clip-path="url(#clip032)" cx="3074.01" cy="1494.03" r="14" fill="#009af9" fill-rule="evenodd" fill-opacity="1" stroke="#000000" stroke-opacity="1" stroke-width="6.4"/>
<path clip-path="url(#clip030)" d="
M370.569 3329.74 L3152.76 3329.74 L3152.76 1847.24 L370.569 1847.24  Z
  " fill="#ffffff" fill-rule="evenodd" fill-opacity="1"/>
<defs>
  <clipPath id="clip033">
    <rect x="370" y="1847" width="2783" height="1483"/>
  </clipPath>
</defs>
<polyline clip-path="url(#clip033)" style="stroke:#000000; stroke-linecap:butt; stroke-linejoin:round; stroke-width:2; stroke-opacity:0.1; fill:none" points="
  370.569,3329.74 370.569,1847.24 
  "/>
<polyline clip-path="url(#clip033)" style="stroke:#000000; stroke-linecap:butt; stroke-linejoin:round; stroke-width:2; stroke-opacity:0.1; fill:none" points="
  927.007,3329.74 927.007,1847.24 
  "/>
<polyline clip-path="url(#clip033)" style="stroke:#000000; stroke-linecap:butt; stroke-linejoin:round; stroke-width:2; stroke-opacity:0.1; fill:none" points="
  1483.44,3329.74 1483.44,1847.24 
  "/>
<polyline clip-path="url(#clip033)" style="stroke:#000000; stroke-linecap:butt; stroke-linejoin:round; stroke-width:2; stroke-opacity:0.1; fill:none" points="
  2039.88,3329.74 2039.88,1847.24 
  "/>
<polyline clip-path="url(#clip033)" style="stroke:#000000; stroke-linecap:butt; stroke-linejoin:round; stroke-width:2; stroke-opacity:0.1; fill:none" points="
  2596.32,3329.74 2596.32,1847.24 
  "/>
<polyline clip-path="url(#clip033)" style="stroke:#000000; stroke-linecap:butt; stroke-linejoin:round; stroke-width:2; stroke-opacity:0.1; fill:none" points="
  3152.76,3329.74 3152.76,1847.24 
  "/>
<polyline clip-path="url(#clip030)" style="stroke:#000000; stroke-linecap:butt; stroke-linejoin:round; stroke-width:4; stroke-opacity:1; fill:none" points="
  370.569,3329.74 3152.76,3329.74 
  "/>
<polyline clip-path="url(#clip030)" style="stroke:#000000; stroke-linecap:butt; stroke-linejoin:round; stroke-width:4; stroke-opacity:1; fill:none" points="
  370.569,3329.74 370.569,3310.84 
  "/>
<polyline clip-path="url(#clip030)" style="stroke:#000000; stroke-linecap:butt; stroke-linejoin:round; stroke-width:4; stroke-opacity:1; fill:none" points="
  927.007,3329.74 927.007,3310.84 
  "/>
<polyline clip-path="url(#clip030)" style="stroke:#000000; stroke-linecap:butt; stroke-linejoin:round; stroke-width:4; stroke-opacity:1; fill:none" points="
  1483.44,3329.74 1483.44,3310.84 
  "/>
<polyline clip-path="url(#clip030)" style="stroke:#000000; stroke-linecap:butt; stroke-linejoin:round; stroke-width:4; stroke-opacity:1; fill:none" points="
  2039.88,3329.74 2039.88,3310.84 
  "/>
<polyline clip-path="url(#clip030)" style="stroke:#000000; stroke-linecap:butt; stroke-linejoin:round; stroke-width:4; stroke-opacity:1; fill:none" points="
  2596.32,3329.74 2596.32,3310.84 
  "/>
<polyline clip-path="url(#clip030)" style="stroke:#000000; stroke-linecap:butt; stroke-linejoin:round; stroke-width:4; stroke-opacity:1; fill:none" points="
  3152.76,3329.74 3152.76,3310.84 
  "/>
<path clip-path="url(#clip030)" d="M370.569 3373.19 Q366.055 3373.19 363.77 3377.64 Q361.513 3382.07 361.513 3390.98 Q361.513 3399.87 363.77 3404.32 Q366.055 3408.75 370.569 3408.75 Q375.112 3408.75 377.369 3404.32 Q379.655 3399.87 379.655 3390.98 Q379.655 3382.07 377.369 3377.64 Q375.112 3373.19 370.569 3373.19 M370.569 3368.56 Q377.832 3368.56 381.651 3374.32 Q385.5 3380.05 385.5 3390.98 Q385.5 3401.89 381.651 3407.65 Q377.832 3413.38 370.569 3413.38 Q363.307 3413.38 359.458 3407.65 Q355.639 3401.89 355.639 3390.98 Q355.639 3380.05 359.458 3374.32 Q363.307 3368.56 370.569 3368.56 Z" fill="#000000" fill-rule="evenodd" fill-opacity="1" /><path clip-path="url(#clip030)" d="M895.366 3407.62 L904.915 3407.62 L904.915 3374.66 L894.527 3376.75 L894.527 3371.42 L904.857 3369.34 L910.702 3369.34 L910.702 3407.62 L920.25 3407.62 L920.25 3412.54 L895.366 3412.54 L895.366 3407.62 Z" fill="#000000" fill-rule="evenodd" fill-opacity="1" /><path clip-path="url(#clip030)" d="M944.556 3373.19 Q940.042 3373.19 937.756 3377.64 Q935.499 3382.07 935.499 3390.98 Q935.499 3399.87 937.756 3404.32 Q940.042 3408.75 944.556 3408.75 Q949.099 3408.75 951.355 3404.32 Q953.641 3399.87 953.641 3390.98 Q953.641 3382.07 951.355 3377.64 Q949.099 3373.19 944.556 3373.19 M944.556 3368.56 Q951.818 3368.56 955.638 3374.32 Q959.486 3380.05 959.486 3390.98 Q959.486 3401.89 955.638 3407.65 Q951.818 3413.38 944.556 3413.38 Q937.293 3413.38 933.445 3407.65 Q929.625 3401.89 929.625 3390.98 Q929.625 3380.05 933.445 3374.32 Q937.293 3368.56 944.556 3368.56 Z" fill="#000000" fill-rule="evenodd" fill-opacity="1" /><path clip-path="url(#clip030)" d="M1456.91 3407.62 L1477.31 3407.62 L1477.31 3412.54 L1449.88 3412.54 L1449.88 3407.62 Q1453.21 3404.18 1458.94 3398.39 Q1464.69 3392.57 1466.17 3390.9 Q1468.98 3387.74 1470.08 3385.57 Q1471.2 3383.37 1471.2 3381.26 Q1471.2 3377.82 1468.77 3375.65 Q1466.37 3373.48 1462.5 3373.48 Q1459.75 3373.48 1456.68 3374.43 Q1453.64 3375.39 1450.17 3377.33 L1450.17 3371.42 Q1453.7 3370.01 1456.77 3369.28 Q1459.83 3368.56 1462.38 3368.56 Q1469.09 3368.56 1473.09 3371.92 Q1477.08 3375.27 1477.08 3380.88 Q1477.08 3383.55 1476.07 3385.95 Q1475.08 3388.32 1472.45 3391.56 Q1471.73 3392.4 1467.85 3396.42 Q1463.97 3400.42 1456.91 3407.62 Z" fill="#000000" fill-rule="evenodd" fill-opacity="1" /><path clip-path="url(#clip030)" d="M1502.08 3373.19 Q1497.56 3373.19 1495.28 3377.64 Q1493.02 3382.07 1493.02 3390.98 Q1493.02 3399.87 1495.28 3404.32 Q1497.56 3408.75 1502.08 3408.75 Q1506.62 3408.75 1508.88 3404.32 Q1511.16 3399.87 1511.16 3390.98 Q1511.16 3382.07 1508.88 3377.64 Q1506.62 3373.19 1502.08 3373.19 M1502.08 3368.56 Q1509.34 3368.56 1513.16 3374.32 Q1517.01 3380.05 1517.01 3390.98 Q1517.01 3401.89 1513.16 3407.65 Q1509.34 3413.38 1502.08 3413.38 Q1494.82 3413.38 1490.97 3407.65 Q1487.15 3401.89 1487.15 3390.98 Q1487.15 3380.05 1490.97 3374.32 Q1494.82 3368.56 1502.08 3368.56 Z" fill="#000000" fill-rule="evenodd" fill-opacity="1" /><path clip-path="url(#clip030)" d="M2025.93 3389.25 Q2030.13 3390.14 2032.47 3392.98 Q2034.85 3395.82 2034.85 3399.98 Q2034.85 3406.38 2030.45 3409.88 Q2026.05 3413.38 2017.95 3413.38 Q2015.23 3413.38 2012.34 3412.83 Q2009.47 3412.31 2006.4 3411.24 L2006.4 3405.6 Q2008.83 3407.01 2011.73 3407.74 Q2014.62 3408.46 2017.77 3408.46 Q2023.27 3408.46 2026.14 3406.29 Q2029.03 3404.12 2029.03 3399.98 Q2029.03 3396.16 2026.34 3394.02 Q2023.68 3391.85 2018.9 3391.85 L2013.87 3391.85 L2013.87 3387.05 L2019.13 3387.05 Q2023.45 3387.05 2025.73 3385.34 Q2028.02 3383.6 2028.02 3380.36 Q2028.02 3377.04 2025.65 3375.27 Q2023.3 3373.48 2018.9 3373.48 Q2016.5 3373.48 2013.75 3374 Q2011 3374.52 2007.71 3375.62 L2007.71 3370.41 Q2011.03 3369.48 2013.93 3369.02 Q2016.85 3368.56 2019.42 3368.56 Q2026.08 3368.56 2029.96 3371.6 Q2033.83 3374.61 2033.83 3379.76 Q2033.83 3383.34 2031.78 3385.83 Q2029.73 3388.29 2025.93 3389.25 Z" fill="#000000" fill-rule="evenodd" fill-opacity="1" /><path clip-path="url(#clip030)" d="M2058.43 3373.19 Q2053.91 3373.19 2051.63 3377.64 Q2049.37 3382.07 2049.37 3390.98 Q2049.37 3399.87 2051.63 3404.32 Q2053.91 3408.75 2058.43 3408.75 Q2062.97 3408.75 2065.23 3404.32 Q2067.51 3399.87 2067.51 3390.98 Q2067.51 3382.07 2065.23 3377.64 Q2062.97 3373.19 2058.43 3373.19 M2058.43 3368.56 Q2065.69 3368.56 2069.51 3374.32 Q2073.36 3380.05 2073.36 3390.98 Q2073.36 3401.89 2069.51 3407.65 Q2065.69 3413.38 2058.43 3413.38 Q2051.17 3413.38 2047.32 3407.65 Q2043.5 3401.89 2043.5 3390.98 Q2043.5 3380.05 2047.32 3374.32 Q2051.17 3368.56 2058.43 3368.56 Z" fill="#000000" fill-rule="evenodd" fill-opacity="1" /><path clip-path="url(#clip030)" d="M2581.53 3374.43 L2566.78 3397.49 L2581.53 3397.49 L2581.53 3374.43 M2580 3369.34 L2587.35 3369.34 L2587.35 3397.49 L2593.51 3397.49 L2593.51 3402.35 L2587.35 3402.35 L2587.35 3412.54 L2581.53 3412.54 L2581.53 3402.35 L2562.03 3402.35 L2562.03 3396.71 L2580 3369.34 Z" fill="#000000" fill-rule="evenodd" fill-opacity="1" /><path clip-path="url(#clip030)" d="M2615.68 3373.19 Q2611.16 3373.19 2608.88 3377.64 Q2606.62 3382.07 2606.62 3390.98 Q2606.62 3399.87 2608.88 3404.32 Q2611.16 3408.75 2615.68 3408.75 Q2620.22 3408.75 2622.48 3404.32 Q2624.76 3399.87 2624.76 3390.98 Q2624.76 3382.07 2622.48 3377.64 Q2620.22 3373.19 2615.68 3373.19 M2615.68 3368.56 Q2622.94 3368.56 2626.76 3374.32 Q2630.61 3380.05 2630.61 3390.98 Q2630.61 3401.89 2626.76 3407.65 Q2622.94 3413.38 2615.68 3413.38 Q2608.41 3413.38 2604.57 3407.65 Q2600.75 3401.89 2600.75 3390.98 Q2600.75 3380.05 2604.57 3374.32 Q2608.41 3368.56 2615.68 3368.56 Z" fill="#000000" fill-rule="evenodd" fill-opacity="1" /><path clip-path="url(#clip030)" d="M3121.13 3369.34 L3144.08 3369.34 L3144.08 3374.26 L3126.48 3374.26 L3126.48 3384.85 Q3127.76 3384.41 3129.03 3384.21 Q3130.3 3383.98 3131.58 3383.98 Q3138.81 3383.98 3143.03 3387.95 Q3147.26 3391.91 3147.26 3398.68 Q3147.26 3405.65 3142.92 3409.53 Q3138.58 3413.38 3130.68 3413.38 Q3127.96 3413.38 3125.12 3412.92 Q3122.32 3412.45 3119.31 3411.53 L3119.31 3405.65 Q3121.91 3407.07 3124.69 3407.77 Q3127.47 3408.46 3130.56 3408.46 Q3135.57 3408.46 3138.49 3405.83 Q3141.41 3403.19 3141.41 3398.68 Q3141.41 3394.17 3138.49 3391.53 Q3135.57 3388.9 3130.56 3388.9 Q3128.22 3388.9 3125.88 3389.42 Q3123.56 3389.94 3121.13 3391.04 L3121.13 3369.34 Z" fill="#000000" fill-rule="evenodd" fill-opacity="1" /><path clip-path="url(#clip030)" d="M3171.27 3373.19 Q3166.76 3373.19 3164.47 3377.64 Q3162.22 3382.07 3162.22 3390.98 Q3162.22 3399.87 3164.47 3404.32 Q3166.76 3408.75 3171.27 3408.75 Q3175.82 3408.75 3178.07 3404.32 Q3180.36 3399.87 3180.36 3390.98 Q3180.36 3382.07 3178.07 3377.64 Q3175.82 3373.19 3171.27 3373.19 M3171.27 3368.56 Q3178.54 3368.56 3182.36 3374.32 Q3186.2 3380.05 3186.2 3390.98 Q3186.2 3401.89 3182.36 3407.65 Q3178.54 3413.38 3171.27 3413.38 Q3164.01 3413.38 3160.16 3407.65 Q3156.34 3401.89 3156.34 3390.98 Q3156.34 3380.05 3160.16 3374.32 Q3164.01 3368.56 3171.27 3368.56 Z" fill="#000000" fill-rule="evenodd" fill-opacity="1" /><path clip-path="url(#clip030)" d="M1485.01 3475.75 L1520.41 3475.75 L1520.41 3482.55 L1492.38 3515.16 L1520.41 3515.16 L1520.41 3521.12 L1483.99 3521.12 L1483.99 3514.31 L1512.03 3481.7 L1485.01 3481.7 L1485.01 3475.75 Z" fill="#000000" fill-rule="evenodd" fill-opacity="1" /><path clip-path="url(#clip030)" d="M1528.03 3495.07 L1549.86 3495.07 L1549.86 3501.71 L1528.03 3501.71 L1528.03 3495.07 Z" fill="#000000" fill-rule="evenodd" fill-opacity="1" /><path clip-path="url(#clip030)" d="M1590.65 3477.08 L1590.65 3484.13 Q1587.49 3482.51 1584.09 3481.7 Q1580.69 3480.89 1577.04 3480.89 Q1571.49 3480.89 1568.7 3482.59 Q1565.94 3484.29 1565.94 3487.7 Q1565.94 3490.29 1567.93 3491.79 Q1569.91 3493.25 1575.91 3494.58 L1578.46 3495.15 Q1586.4 3496.85 1589.72 3499.97 Q1593.08 3503.05 1593.08 3508.6 Q1593.08 3514.92 1588.06 3518.6 Q1583.08 3522.29 1574.33 3522.29 Q1570.68 3522.29 1566.71 3521.56 Q1562.78 3520.87 1558.41 3519.45 L1558.41 3511.76 Q1562.54 3513.91 1566.55 3515 Q1570.56 3516.05 1574.49 3516.05 Q1579.76 3516.05 1582.59 3514.27 Q1585.43 3512.45 1585.43 3509.17 Q1585.43 3506.13 1583.36 3504.51 Q1581.34 3502.89 1574.41 3501.39 L1571.82 3500.78 Q1564.89 3499.32 1561.81 3496.32 Q1558.73 3493.29 1558.73 3488.02 Q1558.73 3481.62 1563.27 3478.14 Q1567.81 3474.65 1576.15 3474.65 Q1580.28 3474.65 1583.93 3475.26 Q1587.58 3475.87 1590.65 3477.08 Z" fill="#000000" fill-rule="evenodd" fill-opacity="1" /><path clip-path="url(#clip030)" d="M1612.16 3514.31 L1612.16 3538.37 L1604.67 3538.37 L1604.67 3475.75 L1612.16 3475.75 L1612.16 3482.63 Q1614.51 3478.58 1618.08 3476.64 Q1621.68 3474.65 1626.67 3474.65 Q1634.93 3474.65 1640.07 3481.21 Q1645.26 3487.78 1645.26 3498.47 Q1645.26 3509.17 1640.07 3515.73 Q1634.93 3522.29 1626.67 3522.29 Q1621.68 3522.29 1618.08 3520.35 Q1614.51 3518.36 1612.16 3514.31 M1637.52 3498.47 Q1637.52 3490.25 1634.12 3485.59 Q1630.76 3480.89 1624.84 3480.89 Q1618.93 3480.89 1615.53 3485.59 Q1612.16 3490.25 1612.16 3498.47 Q1612.16 3506.69 1615.53 3511.39 Q1618.93 3516.05 1624.84 3516.05 Q1630.76 3516.05 1634.12 3511.39 Q1637.52 3506.69 1637.52 3498.47 Z" fill="#000000" fill-rule="evenodd" fill-opacity="1" /><path clip-path="url(#clip030)" d="M1678.23 3498.31 Q1669.2 3498.31 1665.72 3500.38 Q1662.23 3502.44 1662.23 3507.42 Q1662.23 3511.39 1664.83 3513.74 Q1667.46 3516.05 1671.96 3516.05 Q1678.15 3516.05 1681.88 3511.68 Q1685.65 3507.26 1685.65 3499.97 L1685.65 3498.31 L1678.23 3498.31 M1693.1 3495.23 L1693.1 3521.12 L1685.65 3521.12 L1685.65 3514.23 Q1683.1 3518.36 1679.29 3520.35 Q1675.48 3522.29 1669.97 3522.29 Q1663 3522.29 1658.87 3518.4 Q1654.78 3514.47 1654.78 3507.91 Q1654.78 3500.25 1659.88 3496.36 Q1665.03 3492.48 1675.2 3492.48 L1685.65 3492.48 L1685.65 3491.75 Q1685.65 3486.6 1682.24 3483.81 Q1678.88 3480.97 1672.77 3480.97 Q1668.88 3480.97 1665.19 3481.9 Q1661.5 3482.83 1658.1 3484.7 L1658.1 3477.81 Q1662.19 3476.23 1666.04 3475.46 Q1669.89 3474.65 1673.54 3474.65 Q1683.38 3474.65 1688.24 3479.76 Q1693.1 3484.86 1693.1 3495.23 Z" fill="#000000" fill-rule="evenodd" fill-opacity="1" /><path clip-path="url(#clip030)" d="M1741.1 3477.49 L1741.1 3484.46 Q1737.94 3482.71 1734.74 3481.86 Q1731.58 3480.97 1728.34 3480.97 Q1721.09 3480.97 1717.08 3485.59 Q1713.07 3490.17 1713.07 3498.47 Q1713.07 3506.78 1717.08 3511.39 Q1721.09 3515.97 1728.34 3515.97 Q1731.58 3515.97 1734.74 3515.12 Q1737.94 3514.23 1741.1 3512.49 L1741.1 3519.37 Q1737.99 3520.83 1734.62 3521.56 Q1731.3 3522.29 1727.53 3522.29 Q1717.28 3522.29 1711.25 3515.85 Q1705.21 3509.41 1705.21 3498.47 Q1705.21 3487.37 1711.29 3481.01 Q1717.41 3474.65 1728.02 3474.65 Q1731.46 3474.65 1734.74 3475.38 Q1738.03 3476.07 1741.1 3477.49 Z" fill="#000000" fill-rule="evenodd" fill-opacity="1" /><path clip-path="url(#clip030)" d="M1754.07 3475.75 L1761.52 3475.75 L1761.52 3521.12 L1754.07 3521.12 L1754.07 3475.75 M1754.07 3458.08 L1761.52 3458.08 L1761.52 3467.52 L1754.07 3467.52 L1754.07 3458.08 Z" fill="#000000" fill-rule="evenodd" fill-opacity="1" /><path clip-path="url(#clip030)" d="M1814.83 3493.73 L1814.83 3521.12 L1807.38 3521.12 L1807.38 3493.97 Q1807.38 3487.53 1804.87 3484.33 Q1802.35 3481.13 1797.33 3481.13 Q1791.29 3481.13 1787.81 3484.98 Q1784.33 3488.83 1784.33 3495.47 L1784.33 3521.12 L1776.83 3521.12 L1776.83 3475.75 L1784.33 3475.75 L1784.33 3482.79 Q1787 3478.7 1790.61 3476.68 Q1794.25 3474.65 1798.99 3474.65 Q1806.81 3474.65 1810.82 3479.51 Q1814.83 3484.33 1814.83 3493.73 Z" fill="#000000" fill-rule="evenodd" fill-opacity="1" /><path clip-path="url(#clip030)" d="M1859.55 3497.9 Q1859.55 3489.8 1856.19 3485.35 Q1852.87 3480.89 1846.83 3480.89 Q1840.84 3480.89 1837.48 3485.35 Q1834.15 3489.8 1834.15 3497.9 Q1834.15 3505.97 1837.48 3510.42 Q1840.84 3514.88 1846.83 3514.88 Q1852.87 3514.88 1856.19 3510.42 Q1859.55 3505.97 1859.55 3497.9 M1867.01 3515.49 Q1867.01 3527.07 1861.86 3532.7 Q1856.72 3538.37 1846.1 3538.37 Q1842.17 3538.37 1838.69 3537.77 Q1835.21 3537.2 1831.93 3535.98 L1831.93 3528.73 Q1835.21 3530.51 1838.41 3531.36 Q1841.61 3532.22 1844.93 3532.22 Q1852.26 3532.22 1855.91 3528.37 Q1859.55 3524.56 1859.55 3516.82 L1859.55 3513.14 Q1857.24 3517.15 1853.64 3519.13 Q1850.03 3521.12 1845.01 3521.12 Q1836.67 3521.12 1831.56 3514.76 Q1826.46 3508.4 1826.46 3497.9 Q1826.46 3487.37 1831.56 3481.01 Q1836.67 3474.65 1845.01 3474.65 Q1850.03 3474.65 1853.64 3476.64 Q1857.24 3478.62 1859.55 3482.63 L1859.55 3475.75 L1867.01 3475.75 L1867.01 3515.49 Z" fill="#000000" fill-rule="evenodd" fill-opacity="1" /><path clip-path="url(#clip030)" d="M1926.64 3458.16 Q1921.21 3467.48 1918.57 3476.6 Q1915.94 3485.71 1915.94 3495.07 Q1915.94 3504.43 1918.57 3513.62 Q1921.25 3522.78 1926.64 3532.05 L1920.15 3532.05 Q1914.08 3522.53 1911.04 3513.34 Q1908.04 3504.14 1908.04 3495.07 Q1908.04 3486.04 1911.04 3476.88 Q1914.04 3467.72 1920.15 3458.16 L1926.64 3458.16 Z" fill="#000000" fill-rule="evenodd" fill-opacity="1" /><path clip-path="url(#clip030)" d="M1976.42 3484.46 Q1979.22 3479.43 1983.11 3477.04 Q1986.99 3474.65 1992.26 3474.65 Q1999.35 3474.65 2003.2 3479.63 Q2007.05 3484.58 2007.05 3493.73 L2007.05 3521.12 L1999.55 3521.12 L1999.55 3493.97 Q1999.55 3487.45 1997.24 3484.29 Q1994.93 3481.13 1990.19 3481.13 Q1984.4 3481.13 1981.04 3484.98 Q1977.68 3488.83 1977.68 3495.47 L1977.68 3521.12 L1970.18 3521.12 L1970.18 3493.97 Q1970.18 3487.41 1967.87 3484.29 Q1965.56 3481.13 1960.74 3481.13 Q1955.03 3481.13 1951.67 3485.02 Q1948.31 3488.87 1948.31 3495.47 L1948.31 3521.12 L1940.81 3521.12 L1940.81 3475.75 L1948.31 3475.75 L1948.31 3482.79 Q1950.86 3478.62 1954.42 3476.64 Q1957.99 3474.65 1962.89 3474.65 Q1967.83 3474.65 1971.28 3477.16 Q1974.76 3479.68 1976.42 3484.46 Z" fill="#000000" fill-rule="evenodd" fill-opacity="1" /><path clip-path="url(#clip030)" d="M2020.74 3458.16 L2027.22 3458.16 Q2033.3 3467.72 2036.29 3476.88 Q2039.33 3486.04 2039.33 3495.07 Q2039.33 3504.14 2036.29 3513.34 Q2033.3 3522.53 2027.22 3532.05 L2020.74 3532.05 Q2026.13 3522.78 2028.76 3513.62 Q2031.43 3504.43 2031.43 3495.07 Q2031.43 3485.71 2028.76 3476.6 Q2026.13 3467.48 2020.74 3458.16 Z" fill="#000000" fill-rule="evenodd" fill-opacity="1" /><polyline clip-path="url(#clip033)" style="stroke:#000000; stroke-linecap:butt; stroke-linejoin:round; stroke-width:2; stroke-opacity:0.1; fill:none" points="
  370.569,3289.47 3152.76,3289.47 
  "/>
<polyline clip-path="url(#clip033)" style="stroke:#000000; stroke-linecap:butt; stroke-linejoin:round; stroke-width:2; stroke-opacity:0.1; fill:none" points="
  370.569,2938.98 3152.76,2938.98 
  "/>
<polyline clip-path="url(#clip033)" style="stroke:#000000; stroke-linecap:butt; stroke-linejoin:round; stroke-width:2; stroke-opacity:0.1; fill:none" points="
  370.569,2588.49 3152.76,2588.49 
  "/>
<polyline clip-path="url(#clip033)" style="stroke:#000000; stroke-linecap:butt; stroke-linejoin:round; stroke-width:2; stroke-opacity:0.1; fill:none" points="
  370.569,2238 3152.76,2238 
  "/>
<polyline clip-path="url(#clip033)" style="stroke:#000000; stroke-linecap:butt; stroke-linejoin:round; stroke-width:2; stroke-opacity:0.1; fill:none" points="
  370.569,1887.51 3152.76,1887.51 
  "/>
<polyline clip-path="url(#clip030)" style="stroke:#000000; stroke-linecap:butt; stroke-linejoin:round; stroke-width:4; stroke-opacity:1; fill:none" points="
  370.569,3329.74 370.569,1847.24 
  "/>
<polyline clip-path="url(#clip030)" style="stroke:#000000; stroke-linecap:butt; stroke-linejoin:round; stroke-width:4; stroke-opacity:1; fill:none" points="
  370.569,3289.47 389.467,3289.47 
  "/>
<polyline clip-path="url(#clip030)" style="stroke:#000000; stroke-linecap:butt; stroke-linejoin:round; stroke-width:4; stroke-opacity:1; fill:none" points="
  370.569,2938.98 389.467,2938.98 
  "/>
<polyline clip-path="url(#clip030)" style="stroke:#000000; stroke-linecap:butt; stroke-linejoin:round; stroke-width:4; stroke-opacity:1; fill:none" points="
  370.569,2588.49 389.467,2588.49 
  "/>
<polyline clip-path="url(#clip030)" style="stroke:#000000; stroke-linecap:butt; stroke-linejoin:round; stroke-width:4; stroke-opacity:1; fill:none" points="
  370.569,2238 389.467,2238 
  "/>
<polyline clip-path="url(#clip030)" style="stroke:#000000; stroke-linecap:butt; stroke-linejoin:round; stroke-width:4; stroke-opacity:1; fill:none" points="
  370.569,1887.51 389.467,1887.51 
  "/>
<path clip-path="url(#clip030)" d="M126.322 3290.03 L163.416 3290.03 L163.416 3294.95 L126.322 3294.95 L126.322 3290.03 Z" fill="#000000" fill-rule="evenodd" fill-opacity="1" /><path clip-path="url(#clip030)" d="M177.045 3306.15 L186.593 3306.15 L186.593 3273.19 L176.206 3275.28 L176.206 3269.95 L186.535 3267.87 L192.38 3267.87 L192.38 3306.15 L201.929 3306.15 L201.929 3311.07 L177.045 3311.07 L177.045 3306.15 Z" fill="#000000" fill-rule="evenodd" fill-opacity="1" /><path clip-path="url(#clip030)" d="M226.234 3271.72 Q221.72 3271.72 219.434 3276.17 Q217.178 3280.6 217.178 3289.51 Q217.178 3298.4 219.434 3302.85 Q221.72 3307.28 226.234 3307.28 Q230.777 3307.28 233.034 3302.85 Q235.32 3298.4 235.32 3289.51 Q235.32 3280.6 233.034 3276.17 Q230.777 3271.72 226.234 3271.72 M226.234 3267.09 Q233.497 3267.09 237.316 3272.85 Q241.165 3278.58 241.165 3289.51 Q241.165 3300.42 237.316 3306.18 Q233.497 3311.91 226.234 3311.91 Q218.971 3311.91 215.123 3306.18 Q211.304 3300.42 211.304 3289.51 Q211.304 3278.58 215.123 3272.85 Q218.971 3267.09 226.234 3267.09 Z" fill="#000000" fill-rule="evenodd" fill-opacity="1" /><path clip-path="url(#clip030)" d="M263.937 3271.72 Q259.423 3271.72 257.137 3276.17 Q254.88 3280.6 254.88 3289.51 Q254.88 3298.4 257.137 3302.85 Q259.423 3307.28 263.937 3307.28 Q268.479 3307.28 270.736 3302.85 Q273.022 3298.4 273.022 3289.51 Q273.022 3280.6 270.736 3276.17 Q268.479 3271.72 263.937 3271.72 M263.937 3267.09 Q271.199 3267.09 275.019 3272.85 Q278.867 3278.58 278.867 3289.51 Q278.867 3300.42 275.019 3306.18 Q271.199 3311.91 263.937 3311.91 Q256.674 3311.91 252.825 3306.18 Q249.006 3300.42 249.006 3289.51 Q249.006 3278.58 252.825 3272.85 Q256.674 3267.09 263.937 3267.09 Z" fill="#000000" fill-rule="evenodd" fill-opacity="1" /><path clip-path="url(#clip030)" d="M301.639 3271.72 Q297.125 3271.72 294.839 3276.17 Q292.582 3280.6 292.582 3289.51 Q292.582 3298.4 294.839 3302.85 Q297.125 3307.28 301.639 3307.28 Q306.182 3307.28 308.439 3302.85 Q310.724 3298.4 310.724 3289.51 Q310.724 3280.6 308.439 3276.17 Q306.182 3271.72 301.639 3271.72 M301.639 3267.09 Q308.902 3267.09 312.721 3272.85 Q316.569 3278.58 316.569 3289.51 Q316.569 3300.42 312.721 3306.18 Q308.902 3311.91 301.639 3311.91 Q294.376 3311.91 290.528 3306.18 Q286.708 3300.42 286.708 3289.51 Q286.708 3278.58 290.528 3272.85 Q294.376 3267.09 301.639 3267.09 Z" fill="#000000" fill-rule="evenodd" fill-opacity="1" /><path clip-path="url(#clip030)" d="M164.024 2939.55 L201.119 2939.55 L201.119 2944.46 L164.024 2944.46 L164.024 2939.55 Z" fill="#000000" fill-rule="evenodd" fill-opacity="1" /><path clip-path="url(#clip030)" d="M212.259 2917.38 L240.036 2917.38 L240.036 2919.87 L224.353 2960.58 L218.248 2960.58 L233.005 2922.3 L212.259 2922.3 L212.259 2917.38 Z" fill="#000000" fill-rule="evenodd" fill-opacity="1" /><path clip-path="url(#clip030)" d="M251.494 2917.38 L274.44 2917.38 L274.44 2922.3 L256.847 2922.3 L256.847 2932.89 Q258.121 2932.46 259.394 2932.25 Q260.667 2932.02 261.94 2932.02 Q269.174 2932.02 273.398 2935.99 Q277.623 2939.95 277.623 2946.72 Q277.623 2953.69 273.283 2957.57 Q268.942 2961.42 261.043 2961.42 Q258.323 2961.42 255.487 2960.96 Q252.681 2960.49 249.672 2959.57 L249.672 2953.69 Q252.276 2955.11 255.053 2955.81 Q257.831 2956.5 260.927 2956.5 Q265.933 2956.5 268.855 2953.87 Q271.778 2951.24 271.778 2946.72 Q271.778 2942.21 268.855 2939.57 Q265.933 2936.94 260.927 2936.94 Q258.584 2936.94 256.24 2937.46 Q253.925 2937.98 251.494 2939.08 L251.494 2917.38 Z" fill="#000000" fill-rule="evenodd" fill-opacity="1" /><path clip-path="url(#clip030)" d="M301.639 2921.23 Q297.125 2921.23 294.839 2925.69 Q292.582 2930.11 292.582 2939.02 Q292.582 2947.91 294.839 2952.36 Q297.125 2956.79 301.639 2956.79 Q306.182 2956.79 308.439 2952.36 Q310.724 2947.91 310.724 2939.02 Q310.724 2930.11 308.439 2925.69 Q306.182 2921.23 301.639 2921.23 M301.639 2916.6 Q308.902 2916.6 312.721 2922.36 Q316.569 2928.09 316.569 2939.02 Q316.569 2949.93 312.721 2955.69 Q308.902 2961.42 301.639 2961.42 Q294.376 2961.42 290.528 2955.69 Q286.708 2949.93 286.708 2939.02 Q286.708 2928.09 290.528 2922.36 Q294.376 2916.6 301.639 2916.6 Z" fill="#000000" fill-rule="evenodd" fill-opacity="1" /><path clip-path="url(#clip030)" d="M164.024 2589.06 L201.119 2589.06 L201.119 2593.98 L164.024 2593.98 L164.024 2589.06 Z" fill="#000000" fill-rule="evenodd" fill-opacity="1" /><path clip-path="url(#clip030)" d="M213.792 2566.89 L236.738 2566.89 L236.738 2571.81 L219.145 2571.81 L219.145 2582.4 Q220.418 2581.97 221.691 2581.76 Q222.965 2581.53 224.238 2581.53 Q231.471 2581.53 235.696 2585.5 Q239.92 2589.46 239.92 2596.23 Q239.92 2603.21 235.58 2607.08 Q231.24 2610.93 223.341 2610.93 Q220.621 2610.93 217.785 2610.47 Q214.978 2610.01 211.969 2609.08 L211.969 2603.21 Q214.573 2604.62 217.351 2605.32 Q220.129 2606.01 223.225 2606.01 Q228.231 2606.01 231.153 2603.38 Q234.076 2600.75 234.076 2596.23 Q234.076 2591.72 231.153 2589.09 Q228.231 2586.45 223.225 2586.45 Q220.881 2586.45 218.537 2586.97 Q216.223 2587.49 213.792 2588.59 L213.792 2566.89 Z" fill="#000000" fill-rule="evenodd" fill-opacity="1" /><path clip-path="url(#clip030)" d="M263.937 2570.74 Q259.423 2570.74 257.137 2575.2 Q254.88 2579.62 254.88 2588.54 Q254.88 2597.42 257.137 2601.87 Q259.423 2606.3 263.937 2606.3 Q268.479 2606.3 270.736 2601.87 Q273.022 2597.42 273.022 2588.54 Q273.022 2579.62 270.736 2575.2 Q268.479 2570.74 263.937 2570.74 M263.937 2566.11 Q271.199 2566.11 275.019 2571.87 Q278.867 2577.6 278.867 2588.54 Q278.867 2599.44 275.019 2605.2 Q271.199 2610.93 263.937 2610.93 Q256.674 2610.93 252.825 2605.2 Q249.006 2599.44 249.006 2588.54 Q249.006 2577.6 252.825 2571.87 Q256.674 2566.11 263.937 2566.11 Z" fill="#000000" fill-rule="evenodd" fill-opacity="1" /><path clip-path="url(#clip030)" d="M301.639 2570.74 Q297.125 2570.74 294.839 2575.2 Q292.582 2579.62 292.582 2588.54 Q292.582 2597.42 294.839 2601.87 Q297.125 2606.3 301.639 2606.3 Q306.182 2606.3 308.439 2601.87 Q310.724 2597.42 310.724 2588.54 Q310.724 2579.62 308.439 2575.2 Q306.182 2570.74 301.639 2570.74 M301.639 2566.11 Q308.902 2566.11 312.721 2571.87 Q316.569 2577.6 316.569 2588.54 Q316.569 2599.44 312.721 2605.2 Q308.902 2610.93 301.639 2610.93 Q294.376 2610.93 290.528 2605.2 Q286.708 2599.44 286.708 2588.54 Q286.708 2577.6 290.528 2571.87 Q294.376 2566.11 301.639 2566.11 Z" fill="#000000" fill-rule="evenodd" fill-opacity="1" /><path clip-path="url(#clip030)" d="M164.024 2238.57 L201.119 2238.57 L201.119 2243.49 L164.024 2243.49 L164.024 2238.57 Z" fill="#000000" fill-rule="evenodd" fill-opacity="1" /><path clip-path="url(#clip030)" d="M218.769 2254.68 L239.168 2254.68 L239.168 2259.6 L211.738 2259.6 L211.738 2254.68 Q215.065 2251.24 220.794 2245.45 Q226.552 2239.64 228.028 2237.96 Q230.835 2234.81 231.934 2232.64 Q233.063 2230.44 233.063 2228.32 Q233.063 2224.88 230.632 2222.71 Q228.231 2220.54 224.353 2220.54 Q221.605 2220.54 218.537 2221.5 Q215.499 2222.45 212.027 2224.39 L212.027 2218.49 Q215.557 2217.07 218.624 2216.35 Q221.691 2215.62 224.238 2215.62 Q230.951 2215.62 234.944 2218.98 Q238.937 2222.33 238.937 2227.95 Q238.937 2230.61 237.924 2233.01 Q236.94 2235.38 234.307 2238.62 Q233.584 2239.46 229.706 2243.49 Q225.829 2247.48 218.769 2254.68 Z" fill="#000000" fill-rule="evenodd" fill-opacity="1" /><path clip-path="url(#clip030)" d="M251.494 2216.4 L274.44 2216.4 L274.44 2221.32 L256.847 2221.32 L256.847 2231.91 Q258.121 2231.48 259.394 2231.28 Q260.667 2231.04 261.94 2231.04 Q269.174 2231.04 273.398 2235.01 Q277.623 2238.97 277.623 2245.74 Q277.623 2252.72 273.283 2256.59 Q268.942 2260.44 261.043 2260.44 Q258.323 2260.44 255.487 2259.98 Q252.681 2259.52 249.672 2258.59 L249.672 2252.72 Q252.276 2254.13 255.053 2254.83 Q257.831 2255.52 260.927 2255.52 Q265.933 2255.52 268.855 2252.89 Q271.778 2250.26 271.778 2245.74 Q271.778 2241.23 268.855 2238.6 Q265.933 2235.96 260.927 2235.96 Q258.584 2235.96 256.24 2236.48 Q253.925 2237 251.494 2238.1 L251.494 2216.4 Z" fill="#000000" fill-rule="evenodd" fill-opacity="1" /><path clip-path="url(#clip030)" d="M301.639 2220.25 Q297.125 2220.25 294.839 2224.71 Q292.582 2229.13 292.582 2238.05 Q292.582 2246.93 294.839 2251.39 Q297.125 2255.81 301.639 2255.81 Q306.182 2255.81 308.439 2251.39 Q310.724 2246.93 310.724 2238.05 Q310.724 2229.13 308.439 2224.71 Q306.182 2220.25 301.639 2220.25 M301.639 2215.62 Q308.902 2215.62 312.721 2221.38 Q316.569 2227.11 316.569 2238.05 Q316.569 2248.95 312.721 2254.71 Q308.902 2260.44 301.639 2260.44 Q294.376 2260.44 290.528 2254.71 Q286.708 2248.95 286.708 2238.05 Q286.708 2227.11 290.528 2221.38 Q294.376 2215.62 301.639 2215.62 Z" fill="#000000" fill-rule="evenodd" fill-opacity="1" /><path clip-path="url(#clip030)" d="M301.639 1869.76 Q297.125 1869.76 294.839 1874.22 Q292.582 1878.65 292.582 1887.56 Q292.582 1896.44 294.839 1900.9 Q297.125 1905.32 301.639 1905.32 Q306.182 1905.32 308.439 1900.9 Q310.724 1896.44 310.724 1887.56 Q310.724 1878.65 308.439 1874.22 Q306.182 1869.76 301.639 1869.76 M301.639 1865.13 Q308.902 1865.13 312.721 1870.89 Q316.569 1876.62 316.569 1887.56 Q316.569 1898.47 312.721 1904.22 Q308.902 1909.95 301.639 1909.95 Q294.376 1909.95 290.528 1904.22 Q286.708 1898.47 286.708 1887.56 Q286.708 1876.62 290.528 1870.89 Q294.376 1865.13 301.639 1865.13 Z" fill="#000000" fill-rule="evenodd" fill-opacity="1" /><path clip-path="url(#clip030)" d="M8.80738 2689.87 L8.80738 2654.46 L15.6129 2654.46 L48.2227 2682.49 L48.2227 2654.46 L54.1775 2654.46 L54.1775 2690.88 L47.372 2690.88 L14.7622 2662.85 L14.7622 2689.87 L8.80738 2689.87 Z" fill="#000000" fill-rule="evenodd" fill-opacity="1" /><path clip-path="url(#clip030)" d="M-8.77354 2598.8 Q0.543539 2604.23 9.65807 2606.86 Q18.7726 2609.5 28.1302 2609.5 Q37.4878 2609.5 46.6833 2606.86 Q55.8384 2604.19 65.115 2598.8 L65.115 2605.28 Q55.5953 2611.36 46.3998 2614.4 Q37.2042 2617.4 28.1302 2617.4 Q19.0967 2617.4 9.94164 2614.4 Q0.786593 2611.4 -8.77354 2605.28 L-8.77354 2598.8 Z" fill="#000000" fill-rule="evenodd" fill-opacity="1" /><path clip-path="url(#clip030)" d="M17.5168 2549.02 Q12.4937 2546.22 10.1037 2542.33 Q7.71364 2538.44 7.71364 2533.18 Q7.71364 2526.09 12.6963 2522.24 Q17.6384 2518.39 26.7934 2518.39 L54.1775 2518.39 L54.1775 2525.89 L27.0365 2525.89 Q20.5145 2525.89 17.3548 2528.19 Q14.1951 2530.5 14.1951 2535.24 Q14.1951 2541.04 18.0434 2544.4 Q21.8918 2547.76 28.5353 2547.76 L54.1775 2547.76 L54.1775 2555.25 L27.0365 2555.25 Q20.474 2555.25 17.3548 2557.56 Q14.1951 2559.87 14.1951 2564.69 Q14.1951 2570.4 18.084 2573.77 Q21.9323 2577.13 28.5353 2577.13 L54.1775 2577.13 L54.1775 2584.62 L8.80738 2584.62 L8.80738 2577.13 L15.856 2577.13 Q11.6835 2574.58 9.69858 2571.01 Q7.71364 2567.45 7.71364 2562.55 Q7.71364 2557.6 10.2252 2554.16 Q12.7368 2550.68 17.5168 2549.02 Z" fill="#000000" fill-rule="evenodd" fill-opacity="1" /><path clip-path="url(#clip030)" d="M-8.77354 2504.7 L-8.77354 2498.22 Q0.786593 2492.14 9.94164 2489.14 Q19.0967 2486.11 28.1302 2486.11 Q37.2042 2486.11 46.3998 2489.14 Q55.5953 2492.14 65.115 2498.22 L65.115 2504.7 Q55.8384 2499.31 46.6833 2496.68 Q37.4878 2494 28.1302 2494 Q18.7726 2494 9.65807 2496.68 Q0.543539 2499.31 -8.77354 2504.7 Z" fill="#000000" fill-rule="evenodd" fill-opacity="1" /><polyline clip-path="url(#clip033)" style="stroke:#009af9; stroke-linecap:butt; stroke-linejoin:round; stroke-width:12; stroke-opacity:1; fill:none" points="
  504.539,3287.78 771.189,3281.05 1033.98,3267.64 1290.38,3247.7 1537.93,3221.41 1774.23,3189.02 1997.01,3150.84 2204.13,3107.26 2393.59,3058.67 2563.57,3005.56 
  2712.43,2948.43 2838.74,2887.84 2941.28,2824.36 3019.05,2758.61 3071.33,2691.22 3097.59,2622.85 3097.59,2554.14 3071.33,2485.76 3019.05,2418.37 2941.28,2352.62 
  2838.74,2289.15 2712.43,2228.55 2563.57,2171.42 2393.59,2118.31 2204.13,2069.73 1997.01,2026.14 1774.23,1987.97 1537.93,1955.58 1290.38,1929.29 1033.98,1909.34 
  771.189,1895.94 504.539,1889.2 
  "/>
<path clip-path="url(#clip033)" d="M488.539 3271.78 L488.539 3303.78 L520.539 3303.78 L520.539 3271.78 L488.539 3271.78 Z" fill="#009af9" fill-rule="evenodd" fill-opacity="1" stroke="#000000" stroke-opacity="1" stroke-width="6.4"/>
<path clip-path="url(#clip033)" d="M755.189 3265.05 L755.189 3297.05 L787.189 3297.05 L787.189 3265.05 L755.189 3265.05 Z" fill="#009af9" fill-rule="evenodd" fill-opacity="1" stroke="#000000" stroke-opacity="1" stroke-width="6.4"/>
<path clip-path="url(#clip033)" d="M1017.98 3251.64 L1017.98 3283.64 L1049.98 3283.64 L1049.98 3251.64 L1017.98 3251.64 Z" fill="#009af9" fill-rule="evenodd" fill-opacity="1" stroke="#000000" stroke-opacity="1" stroke-width="6.4"/>
<path clip-path="url(#clip033)" d="M1274.38 3231.7 L1274.38 3263.7 L1306.38 3263.7 L1306.38 3231.7 L1274.38 3231.7 Z" fill="#009af9" fill-rule="evenodd" fill-opacity="1" stroke="#000000" stroke-opacity="1" stroke-width="6.4"/>
<path clip-path="url(#clip033)" d="M1521.93 3205.41 L1521.93 3237.41 L1553.93 3237.41 L1553.93 3205.41 L1521.93 3205.41 Z" fill="#009af9" fill-rule="evenodd" fill-opacity="1" stroke="#000000" stroke-opacity="1" stroke-width="6.4"/>
<path clip-path="url(#clip033)" d="M1758.23 3173.02 L1758.23 3205.02 L1790.23 3205.02 L1790.23 3173.02 L1758.23 3173.02 Z" fill="#009af9" fill-rule="evenodd" fill-opacity="1" stroke="#000000" stroke-opacity="1" stroke-width="6.4"/>
<path clip-path="url(#clip033)" d="M1981.01 3134.84 L1981.01 3166.84 L2013.01 3166.84 L2013.01 3134.84 L1981.01 3134.84 Z" fill="#009af9" fill-rule="evenodd" fill-opacity="1" stroke="#000000" stroke-opacity="1" stroke-width="6.4"/>
<path clip-path="url(#clip033)" d="M2188.13 3091.26 L2188.13 3123.26 L2220.13 3123.26 L2220.13 3091.26 L2188.13 3091.26 Z" fill="#009af9" fill-rule="evenodd" fill-opacity="1" stroke="#000000" stroke-opacity="1" stroke-width="6.4"/>
<path clip-path="url(#clip033)" d="M2377.59 3042.67 L2377.59 3074.67 L2409.59 3074.67 L2409.59 3042.67 L2377.59 3042.67 Z" fill="#009af9" fill-rule="evenodd" fill-opacity="1" stroke="#000000" stroke-opacity="1" stroke-width="6.4"/>
<path clip-path="url(#clip033)" d="M2547.57 2989.56 L2547.57 3021.56 L2579.57 3021.56 L2579.57 2989.56 L2547.57 2989.56 Z" fill="#009af9" fill-rule="evenodd" fill-opacity="1" stroke="#000000" stroke-opacity="1" stroke-width="6.4"/>
<path clip-path="url(#clip033)" d="M2696.43 2932.43 L2696.43 2964.43 L2728.43 2964.43 L2728.43 2932.43 L2696.43 2932.43 Z" fill="#009af9" fill-rule="evenodd" fill-opacity="1" stroke="#000000" stroke-opacity="1" stroke-width="6.4"/>
<path clip-path="url(#clip033)" d="M2822.74 2871.84 L2822.74 2903.84 L2854.74 2903.84 L2854.74 2871.84 L2822.74 2871.84 Z" fill="#009af9" fill-rule="evenodd" fill-opacity="1" stroke="#000000" stroke-opacity="1" stroke-width="6.4"/>
<path clip-path="url(#clip033)" d="M2925.28 2808.36 L2925.28 2840.36 L2957.28 2840.36 L2957.28 2808.36 L2925.28 2808.36 Z" fill="#009af9" fill-rule="evenodd" fill-opacity="1" stroke="#000000" stroke-opacity="1" stroke-width="6.4"/>
<path clip-path="url(#clip033)" d="M3003.05 2742.61 L3003.05 2774.61 L3035.05 2774.61 L3035.05 2742.61 L3003.05 2742.61 Z" fill="#009af9" fill-rule="evenodd" fill-opacity="1" stroke="#000000" stroke-opacity="1" stroke-width="6.4"/>
<path clip-path="url(#clip033)" d="M3055.33 2675.22 L3055.33 2707.22 L3087.33 2707.22 L3087.33 2675.22 L3055.33 2675.22 Z" fill="#009af9" fill-rule="evenodd" fill-opacity="1" stroke="#000000" stroke-opacity="1" stroke-width="6.4"/>
<path clip-path="url(#clip033)" d="M3081.59 2606.85 L3081.59 2638.85 L3113.59 2638.85 L3113.59 2606.85 L3081.59 2606.85 Z" fill="#009af9" fill-rule="evenodd" fill-opacity="1" stroke="#000000" stroke-opacity="1" stroke-width="6.4"/>
<path clip-path="url(#clip033)" d="M3081.59 2538.14 L3081.59 2570.14 L3113.59 2570.14 L3113.59 2538.14 L3081.59 2538.14 Z" fill="#009af9" fill-rule="evenodd" fill-opacity="1" stroke="#000000" stroke-opacity="1" stroke-width="6.4"/>
<path clip-path="url(#clip033)" d="M3055.33 2469.76 L3055.33 2501.76 L3087.33 2501.76 L3087.33 2469.76 L3055.33 2469.76 Z" fill="#009af9" fill-rule="evenodd" fill-opacity="1" stroke="#000000" stroke-opacity="1" stroke-width="6.4"/>
<path clip-path="url(#clip033)" d="M3003.05 2402.37 L3003.05 2434.37 L3035.05 2434.37 L3035.05 2402.37 L3003.05 2402.37 Z" fill="#009af9" fill-rule="evenodd" fill-opacity="1" stroke="#000000" stroke-opacity="1" stroke-width="6.4"/>
<path clip-path="url(#clip033)" d="M2925.28 2336.62 L2925.28 2368.62 L2957.28 2368.62 L2957.28 2336.62 L2925.28 2336.62 Z" fill="#009af9" fill-rule="evenodd" fill-opacity="1" stroke="#000000" stroke-opacity="1" stroke-width="6.4"/>
<path clip-path="url(#clip033)" d="M2822.74 2273.15 L2822.74 2305.15 L2854.74 2305.15 L2854.74 2273.15 L2822.74 2273.15 Z" fill="#009af9" fill-rule="evenodd" fill-opacity="1" stroke="#000000" stroke-opacity="1" stroke-width="6.4"/>
<path clip-path="url(#clip033)" d="M2696.43 2212.55 L2696.43 2244.55 L2728.43 2244.55 L2728.43 2212.55 L2696.43 2212.55 Z" fill="#009af9" fill-rule="evenodd" fill-opacity="1" stroke="#000000" stroke-opacity="1" stroke-width="6.4"/>
<path clip-path="url(#clip033)" d="M2547.57 2155.42 L2547.57 2187.42 L2579.57 2187.42 L2579.57 2155.42 L2547.57 2155.42 Z" fill="#009af9" fill-rule="evenodd" fill-opacity="1" stroke="#000000" stroke-opacity="1" stroke-width="6.4"/>
<path clip-path="url(#clip033)" d="M2377.59 2102.31 L2377.59 2134.31 L2409.59 2134.31 L2409.59 2102.31 L2377.59 2102.31 Z" fill="#009af9" fill-rule="evenodd" fill-opacity="1" stroke="#000000" stroke-opacity="1" stroke-width="6.4"/>
<path clip-path="url(#clip033)" d="M2188.13 2053.73 L2188.13 2085.73 L2220.13 2085.73 L2220.13 2053.73 L2188.13 2053.73 Z" fill="#009af9" fill-rule="evenodd" fill-opacity="1" stroke="#000000" stroke-opacity="1" stroke-width="6.4"/>
<path clip-path="url(#clip033)" d="M1981.01 2010.14 L1981.01 2042.14 L2013.01 2042.14 L2013.01 2010.14 L1981.01 2010.14 Z" fill="#009af9" fill-rule="evenodd" fill-opacity="1" stroke="#000000" stroke-opacity="1" stroke-width="6.4"/>
<path clip-path="url(#clip033)" d="M1758.23 1971.97 L1758.23 2003.97 L1790.23 2003.97 L1790.23 1971.97 L1758.23 1971.97 Z" fill="#009af9" fill-rule="evenodd" fill-opacity="1" stroke="#000000" stroke-opacity="1" stroke-width="6.4"/>
<path clip-path="url(#clip033)" d="M1521.93 1939.58 L1521.93 1971.58 L1553.93 1971.58 L1553.93 1939.58 L1521.93 1939.58 Z" fill="#009af9" fill-rule="evenodd" fill-opacity="1" stroke="#000000" stroke-opacity="1" stroke-width="6.4"/>
<path clip-path="url(#clip033)" d="M1274.38 1913.29 L1274.38 1945.29 L1306.38 1945.29 L1306.38 1913.29 L1274.38 1913.29 Z" fill="#009af9" fill-rule="evenodd" fill-opacity="1" stroke="#000000" stroke-opacity="1" stroke-width="6.4"/>
<path clip-path="url(#clip033)" d="M1017.98 1893.34 L1017.98 1925.34 L1049.98 1925.34 L1049.98 1893.34 L1017.98 1893.34 Z" fill="#009af9" fill-rule="evenodd" fill-opacity="1" stroke="#000000" stroke-opacity="1" stroke-width="6.4"/>
<path clip-path="url(#clip033)" d="M755.189 1879.94 L755.189 1911.94 L787.189 1911.94 L787.189 1879.94 L755.189 1879.94 Z" fill="#009af9" fill-rule="evenodd" fill-opacity="1" stroke="#000000" stroke-opacity="1" stroke-width="6.4"/>
<path clip-path="url(#clip033)" d="M488.539 1873.2 L488.539 1905.2 L520.539 1905.2 L520.539 1873.2 L488.539 1873.2 Z" fill="#009af9" fill-rule="evenodd" fill-opacity="1" stroke="#000000" stroke-opacity="1" stroke-width="6.4"/>
</svg>
